<svg
   viewBox="0 0 1010.7128 96.769531"
   version="1.1"
   id="svg12"
   sodipodi:docname="nlp-it.svg"
   inkscape:version="1.2.1 (9c6d41e410, 2022-07-14, custom)"
   xmlns:inkscape="http://www.inkscape.org/namespaces/inkscape"
   xmlns:sodipodi="http://sodipodi.sourceforge.net/DTD/sodipodi-0.dtd"
   xmlns="http://www.w3.org/2000/svg"
   xmlns:svg="http://www.w3.org/2000/svg">
  <defs
     id="defs16" />
  <sodipodi:namedview
     id="namedview14"
     pagecolor="#000000"
     bordercolor="#666666"
     borderopacity="1.0"
     inkscape:showpageshadow="2"
     inkscape:pageopacity="0"
     inkscape:pagecheckerboard="0"
     inkscape:deskcolor="#d1d1d1"
     inkscape:document-units="pt"
     showgrid="false"
     inkscape:zoom="0.560625"
     inkscape:cx="624.30323"
     inkscape:cy="615.38462"
     inkscape:window-width="1920"
     inkscape:window-height="1039"
     inkscape:window-x="0"
     inkscape:window-y="41"
     inkscape:window-maximized="1"
     inkscape:current-layer="svg12" />
  <path
     fill-rule="nonzero"
     fill="rgb(0%, 0%, 0%)"
     fill-opacity="1"
     d="m 56.275273,65.210932 c 0.59765,1.39063 1.59375,1.98829 2.58593,1.98829 0.59766,-0.19922 1.39453,-0.9961 1.99219,-2.58594 l 18.32031,-52.36719 c 1.99219,-5.67578 3.98047,-8.06641 6.3711,-8.06641 h 2.58984 c 0.59375,0 0.79297,-0.19921 0.79297,-0.79687 l 0.39844,-1.78906 c 0.19922,-0.79688 0,-1.39453 -0.99219,-1.39453 -1.39453,0 -3.38672,0.29687 -8.5625,0.29687 -6.96875,0 -10.15625,-0.29687 -11.35156,-0.29687 -0.59766,0 -0.79688,0.39843 -0.9961,0.79687 l -0.19922,2.1875 c -0.19921,0.79688 0,0.99609 0.9961,0.99609 h 2.98828 c 3.38281,0 4.17969,3.1875 1.59375,11.25 l -10.55469,32.25782 c -0.79687,2.39062 -1.19531,2.58984 -1.99219,1.39453 l -22.10156,-45.9961 c -0.59765,-1.39453 -1.19531,-2.58984 -2.98437,-2.58984 -11.75,0 -15.73047,-0.29687 -16.92578,-0.29687 -0.79688,0 -0.9961,0.39843 -1.19532,0.99609 l -0.39843,1.78906 c -0.19922,0.79688 0,1.19531 0.79687,1.19531 h 3.78516 c 4.17969,0 6.26953,2.78907 4.3789,8.66407 l -12.14453,38.42578 c -2.98828,8.86328 -5.3789004,12.24609 -9.9570294,12.24609 h -2.191406 c -0.59765602,0 -0.79687502,0.39844 -0.99609402,0.79688 l -0.296875,2.08984 c -0.101562,0.69922 0.09766,1.09766 0.695313,1.09766 1.19531202,0 4.38281202,-0.30078 11.35156142,-0.30078 6.76953,0 10.94922,0.30078 11.94531,0.30078 0.9961,0 0.9961,-0.19922 1.19532,-0.89844 l 0.39843,-2.08984 c 0,-0.59766 -0.19921,-0.9961 -0.99609,-0.9961 h -3.78125 c -4.18359,0 -4.58203,-4.67969 -1.19531,-16.02734 l 9.95312,-33.25391 c 0.19922,-1.19531 0.9961,-1.19531 1.59375,-0.19922 z m 60.531247,-39.625 c -0.59766,0 -1.19532,0.19922 -1.59375,0.79688 l -1.59375,2.78516 c -1.19532,-1.58985 -3.1836,-3.38282 -7.56641,-3.38282 -13.339837,0 -27.277337,21.90235 -27.277337,35.24219 0,4.18359 3.58203,7.16797 6.17187,7.16797 8.16406,0 16.328127,-10.55078 20.507807,-16.72656 l 0.59766,0.19922 c -3.58203,10.35546 -4.17969,12.54687 -4.17969,13.9375 0,1.59375 0.9961,2.58984 3.1836,2.58984 7.76562,0 14.73437,-8.36328 15.73046,-10.35156 0.19922,-0.59766 0.19922,-0.9961 0,-1.19532 l -1.19531,-0.89843 c -0.39844,-0.29688 -0.59765,-0.0977 -0.99609,0.30078 -0.79297,0.99609 -4.77735,5.77344 -6.17188,5.77344 -0.79687,0 -1.19531,-0.19922 -1.19531,-1.19532 0,-1.19531 3.78516,-12.74218 4.18359,-14.53515 0.79688,-2.58985 5.57422,-15.33203 7.36719,-19.51172 0.19922,-0.59766 0,-0.9961 -0.59765,-0.9961 z m -25.886717,35.83985 c -1.59375,0 -2.38672,-0.9961 -2.38672,-3.1875 0,-5.57422 2.78515,-14.53516 8.35937,-22.39844 2.58985,-3.68359 5.578127,-6.07422 8.164067,-6.07422 2.78906,0 4.58203,2.78906 4.58203,4.38281 0,3.1836 -0.9961,6.17188 -2.39063,8.95704 -1.79297,3.78515 -12.542967,18.32031 -16.328117,18.32031 z m 56.351557,-29.07031 h 10.35156 c 0.59766,0 0.89844,-0.10157 0.9961,-0.5 l 0.79687,-2.88672 c 0.19922,-0.59766 0,-0.99219 -0.39844,-0.99219 h -10.2539 l 6.47265,-13.14453 c 0.39844,-0.9961 0,-1.98828 -0.59765,-1.98828 -0.39844,0 -0.9961,0.39453 -1.59375,0.59375 -0.79688,0.59765 -4.77735,2.39062 -6.76953,2.58984 -1.79297,0.19922 -2.19141,0.39844 -2.58985,1.39453 l -4.08203,10.55469 h -7.66406 c -0.59766,0 -0.79688,0.19531 -0.9961,0.79297 l -0.79687,2.58984 c -0.19922,0.79688 0,0.9961 0.59766,0.9961 h 7.36718 l -10.55468,27.27734 c -0.59766,1.79297 -0.9961,3.78516 -0.9961,5.57812 0,1.39063 1.19531,2.98438 4.1836,2.98438 8.96093,0 17.91796,-8.36328 19.11328,-9.95703 0.19922,-0.39453 0.19922,-0.59375 -0.19922,-0.79297 l -1.09375,-1.19531 c -0.39844,-0.39844 -0.59766,-0.39844 -0.9961,0 -0.59765,0.59765 -6.76953,5.57422 -9.05859,5.57422 -1.19531,0 -1.79297,-0.79688 -1.79297,-1.79297 0,-1.19532 0.9961,-3.58203 1.79297,-5.77344 z m 45.09766,3.98046 c -1.29297,3.78516 -2.78516,6.375 -4.57813,9.16016 -2.58984,4.18359 -12.34766,15.92969 -15.73047,15.92969 -0.79687,0 -1.59375,-0.59766 -1.59375,-1.59375 0,-1.98828 2.19141,-7.36719 4.67969,-13.23828 3.78125,-8.96094 5.67578,-14.23828 5.67578,-16.62891 0,-1.98828 -1.39453,-4.17969 -4.18359,-4.17969 -8.46094,0 -14.9336,7.76563 -16.52735,9.5586 -0.19922,0.39453 -0.19922,0.59375 0,0.79297 l 1.09766,0.99609 c 0.29687,0.39844 0.89453,0.39844 1.09375,0 1.79297,-1.98828 5.57422,-5.375 7.16797,-5.375 0.99609,0 1.79297,0.59766 1.79297,1.59375 0,1.39453 -1.49219,6.07031 -4.28125,12.24609 -4.08203,9.0586 -6.47266,14.23438 -6.47266,18.01953 0,1.98829 2.19141,4.57813 4.58203,4.57813 9.75391,0 19.3125,-13.33984 23.29688,-19.01563 l 0.69531,0.39844 c -1.09375,2.88672 -5.47656,14.23828 -5.47656,15.63281 0,1.78907 1.19531,2.98438 3.1875,2.98438 8.36328,0 15.53125,-8.36328 16.52734,-9.95703 0.19922,-0.39453 0.19922,-0.79297 0,-0.99219 l -1.19531,-0.89844 c -0.39844,-0.29687 -0.79688,-0.29687 -0.9961,0.10157 -1.39453,1.78906 -5.17578,5.57421 -6.57031,5.57421 -0.59765,0 -0.99609,-0.19921 -0.99609,-1.19531 0,-0.59765 1.19531,-4.57812 3.98047,-12.54297 l 6.97265,-20.30859 c 0.19532,-0.79688 0,-1.19531 -0.99609,-1.19531 h -6.76953 c -0.59766,0 -1.19531,0 -1.39453,0.59765 z m 25.6875,30.86329 c 0.59765,0 0.99609,-0.19922 1.19531,-0.59766 l 3.38281,-10.15234 c 1.09375,-3.38672 2.19141,-5.97657 3.1875,-8.16407 2.98438,-5.77343 8.5625,-13.9375 11.34766,-13.9375 1.39453,0 1.99218,0.59766 2.78906,1.19141 0.79687,0.59766 1.79297,0.79687 2.98437,0.79687 1.79297,0 4.1836,-2.58593 4.1836,-5.57421 0,-2.98438 -2.39063,-4.97657 -5.17578,-4.97657 -6.57422,0 -13.64063,12.14453 -16.23047,17.71875 l -0.69531,-0.39843 c 2.1875,-6.57032 3.98046,-11.7461 3.98046,-13.53907 0,-1.78906 -0.99609,-3.78125 -3.98046,-3.78125 -8.16407,0 -13.9375,7.16797 -15.73047,10.15235 -0.19922,0.39843 -0.19922,0.79687 0,0.99609 l 1.19531,0.79688 c 0.39844,0.19921 0.79687,0.19921 0.99609,-0.19922 1.39063,-1.99219 5.375,-5.77344 7.16797,-5.77344 0.99219,0 1.78906,0.79687 1.78906,1.59375 0,1.79297 -3.28515,11.94531 -4.77734,16.92578 l -4.97656,16.125 c -0.19922,0.39844 0.19922,0.79688 0.79687,0.79688 z m 63.11718,-41.61329 c -0.59765,0 -1.19531,0.19922 -1.59375,0.79688 l -1.58984,2.78516 c -1.19531,-1.58985 -3.1875,-3.38282 -7.56641,-3.38282 -13.34375,0 -27.28125,21.90235 -27.28125,35.24219 0,4.18359 3.58594,7.16797 6.17578,7.16797 8.16016,0 16.32422,-10.55078 20.50782,-16.72656 l 0.59765,0.19922 c -3.58593,10.35546 -4.18359,12.54687 -4.18359,13.9375 0,1.59375 0.99609,2.58984 3.1875,2.58984 7.76562,0 14.73437,-8.36328 15.73047,-10.35156 0.19922,-0.59766 0.19922,-0.9961 0,-1.19532 l -1.19531,-0.89843 c -0.39844,-0.29688 -0.59766,-0.0977 -0.9961,0.30078 -0.79687,0.99609 -4.77734,5.77344 -6.17187,5.77344 -0.79688,0 -1.19532,-0.19922 -1.19532,-1.19532 0,-1.19531 3.78516,-12.74218 4.17969,-14.53515 0.79688,-2.58985 5.57813,-15.33203 7.36719,-19.51172 0.19922,-0.59766 0,-0.9961 -0.59375,-0.9961 z m -25.88281,35.83985 c -1.59375,0 -2.39062,-0.9961 -2.39062,-3.1875 0,-5.57422 2.78906,-14.53516 8.36328,-22.39844 2.58984,-3.68359 5.57422,-6.07422 8.16406,-6.07422 2.78516,0 4.57812,2.78906 4.57812,4.38281 0,3.1836 -0.99609,6.17188 -2.38671,8.95704 -1.79297,3.78515 -12.54688,18.32031 -16.32813,18.32031 z m 37.33203,-6.76953 c -0.99609,2.78906 -3.18359,8.36328 -3.18359,9.95703 0,1.98828 1.58984,3.58203 3.38281,3.58203 8.76172,0 17.32422,-8.5625 17.72266,-9.16016 0.39843,-0.59765 0.19922,-0.79687 0,-1.1914 l -1.19532,-0.9961 c -0.39843,-0.39843 -0.59765,-0.39843 -0.99609,-0.19922 -1.19531,1.39063 -5.17578,5.17579 -7.16797,5.17579 -1.99219,0 -0.99609,-3.38672 0,-5.97266 L 321.2948,1.492182 C 321.59558,0.597652 321.39636,2.0000001e-6 320.50183,2.0000001e-6 H 305.1698 c -0.5,0 -0.69922,0.1992199999999 -0.79688,0.4960899999999 l -0.59765,2.28906 c -0.10157,0.5 0,0.79688 0.39843,0.79688 h 3.1836 c 2.98828,0 3.08593,2.58984 1.79297,6.07422 z m 0,0"
     id="path6"
     style="fill:#ffffff" />
  <path
     fill-rule="nonzero"
     fill="rgb(0%, 0%, 0%)"
     fill-opacity="1"
     d="m 393.32995,49.281252 c -0.39453,-0.19922 -0.79297,0 -0.99218,0.59765 -0.39844,0.79297 -6.76954,8.75782 -9.66016,11.25 -1.29297,1.19141 -2.08984,1.78907 -3.88281,1.98828 -1.98828,0.39844 -9.35547,0.39844 -16.32422,0.39844 h -5.97656 c -1.98829,0 -2.98438,-0.59765 -2.38672,-2.6875 l 15.6289,-50.17578 c 1.69141,-5.47656 3.48438,-6.47266 7.07032,-6.47266 h 3.98046 c 0.59766,0 1.09766,-0.19921 1.19532,-0.79687 l 0.39843,-2.1875 c 0.0977,-0.59766 -0.19921,-0.99609 -0.79687,-0.99609 -0.99609,0 -5.57422,0.29687 -15.13281,0.29687 -8.76172,0 -12.94141,-0.29687 -14.13672,-0.29687 -0.79688,0 -1.09375,0.19921 -1.19531,0.59765 l -0.59766,2.38672 c -0.0977,0.59766 0.10156,0.99609 0.79687,0.99609 h 3.58594 c 3.78125,0 4.77735,1.79297 3.38281,6.17188 l -14.23437,46.09766 c -1.89453,6.07031 -4.08203,7.0664 -7.86719,7.0664 h -1.79297 c -0.59765,0 -0.89453,0.19922 -0.99218,0.79688 l -0.39844,2.1914 c -0.19922,0.79688 0.19922,0.9961 0.79297,0.9961 0.69922,0 3.28906,-0.10157 7.16797,-0.19922 3.78515,-0.10156 8.66406,-0.10156 13.34375,-0.10156 13.9375,0 26.48046,0.39843 28.67187,0.39843 1.39453,0 2.58984,0.19922 3.78125,0.59766 0.99609,0.19922 1.99219,0.59766 2.58984,0.59766 0.39844,0 0.9961,-0.59766 1.19532,-1.79297 0.79687,-3.1836 4.3789,-14.9336 4.77734,-16.32813 0.19922,-0.39453 0,-0.59375 -0.59766,-0.79297 z m 44.40625,-23.69532 c -0.59765,0 -1.19531,0.19922 -1.59375,0.79688 l -1.59375,2.78516 c -1.19531,-1.58985 -3.1875,-3.38282 -7.5664,-3.38282 -13.33985,0 -27.27735,21.90235 -27.27735,35.24219 0,4.18359 3.58203,7.16797 6.17188,7.16797 8.16406,0 16.32812,-10.55078 20.50781,-16.72656 l 0.59766,0.19922 c -3.58594,10.35546 -4.17969,12.54687 -4.17969,13.9375 0,1.59375 0.99219,2.58984 3.18359,2.58984 7.76563,0 14.73438,-8.36328 15.73047,-10.35156 0.19922,-0.59766 0.19922,-0.9961 0,-1.19532 l -1.19531,-0.89843 c -0.39844,-0.29688 -0.59766,-0.0977 -0.99609,0.30078 -0.79688,0.99609 -4.77735,5.77344 -6.17188,5.77344 -0.79687,0 -1.19531,-0.19922 -1.19531,-1.19532 0,-1.19531 3.78515,-12.74218 4.18359,-14.53515 0.79688,-2.58985 5.57422,-15.33203 7.36719,-19.51172 0.19922,-0.59766 0,-0.9961 -0.59766,-0.9961 z m -25.88672,35.83985 c -1.59375,0 -2.39062,-0.9961 -2.39062,-3.1875 0,-5.57422 2.78906,-14.53516 8.36328,-22.39844 2.58984,-3.68359 5.57422,-6.07422 8.16406,-6.07422 2.78907,0 4.58203,2.78906 4.58203,4.38281 0,3.1836 -0.99609,6.17188 -2.39062,8.95704 -1.79297,3.78515 -12.54297,18.32031 -16.32813,18.32031 z m 48.28516,-3.98047 c 1.59375,-3.98438 3.38672,-6.97266 5.375,-10.15625 4.18359,-6.76953 12.54688,-14.73438 15.53125,-14.73438 1.39453,0 2.28906,0.79688 2.28906,2.39063 0,1.19141 -2.78515,8.75781 -4.27734,12.94141 -3.1875,8.76171 -5.97656,15.53125 -5.97656,17.32421 0,1.78907 1.19531,2.98438 3.38672,2.98438 8.36328,0 15.33203,-6.96875 16.52734,-8.5625 0.39844,-0.59766 0.39844,-0.99609 0,-1.19531 l -0.99609,-0.79297 c -0.39844,-0.39844 -0.79688,-0.39844 -1.19532,-0.19922 -0.99609,1.39062 -4.77734,4.77734 -6.17187,4.77734 -0.79688,0 -1.19531,-0.59765 -1.19531,-1.59375 0,-1.39453 1.39453,-5.17578 3.98046,-11.74609 4.08204,-10.25391 5.37891,-14.93359 5.37891,-17.52344 0,-2.78906 -1.99219,-5.57422 -5.67578,-5.57422 -9.45703,0 -18.61719,12.54297 -21.60547,17.125 l -0.59766,-0.39843 c 1.79297,-4.38282 4.67969,-11.15235 4.67969,-13.34375 0,-1.39063 -0.89453,-3.38282 -3.78125,-3.38282 -9.05859,0 -15.63281,7.56641 -17.02344,9.35938 -0.39843,0.39453 -0.19921,0.79297 0.19922,0.99219 l 1.09375,1.09765 c 0.29688,0.29688 0.69532,0.29688 0.89453,-0.10156 1.59375,-1.59375 5.47657,-5.17578 7.26954,-5.17578 0.89453,0 1.49218,0.59765 1.49218,1.59375 0,1.39453 -2.39062,7.5664 -4.57812,13.9375 l -6.76953,18.41797 c -0.19922,0.59765 -0.10157,1.29297 0.79687,1.29297 h 6.3711 c 0.99609,0 1.19531,-0.19922 1.39062,-0.59766 z m 51.57031,39.32422 c 7.56641,0 12.14844,-1.39453 15.92969,-3.58594 6.17188,-3.38281 7.16797,-8.16406 7.16797,-10.55078 0,-2.98828 -1.59375,-6.37109 -7.56641,-9.95703 -6.96875,-4.17969 -11.94531,-6.67188 -13.73828,-7.96485 -0.79687,-0.59765 -1.99219,-1.79296 -1.99219,-2.78906 0,-1.58984 2.19141,-3.58203 4.1836,-4.57812 0.19922,0 1.58984,-0.19922 3.78125,-0.59766 11.55078,-1.79297 15.73047,-13.33984 15.73047,-18.11719 0,-1.69531 -0.19922,-3.88281 -0.59766,-5.07812 0.39844,-0.59766 1.59375,-1.19531 2.39063,-1.19531 0.79687,0 1.39453,0.39843 1.79296,0.99609 0.79297,0.79687 1.78907,1.39453 3.38282,1.39453 2.39062,0 3.58593,-1.79297 3.58593,-3.58594 0,-1.79297 -1.19531,-4.3789 -4.38281,-4.3789 -3.38281,0 -6.76953,2.08984 -8.36328,3.28515 -0.99609,-1.09765 -3.78125,-4.28125 -9.75391,-4.28125 -12.54687,0 -19.51562,11.54688 -19.51562,18.91407 0,6.87109 3.58594,9.85546 8.16406,11.64843 l -0.19922,0.39844 c -5.77343,2.78906 -8.5625,5.17578 -8.5625,7.36719 0,1.99219 0.79688,3.78515 3.78516,5.97265 -2.98828,1.19532 -8.5625,3.38672 -12.54688,6.76954 -2.98437,2.39062 -4.17968,4.38281 -4.17968,7.5664 0,6.375 9.75781,12.34766 21.5039,12.34766 z m 4.58203,-43.10938 c -2.39062,0 -3.58593,-1.79297 -3.58593,-5.57422 0,-5.07812 0.59765,-9.05859 4.48047,-15.23437 1.6914,-2.6875 3.28515,-3.88281 5.47656,-3.88281 2.78515,0 3.58203,2.1914 3.58203,6.07422 0,7.07031 -3.78125,18.61718 -9.95313,18.61718 z m -2.1914,39.52344 c -7.36719,0 -14.53516,-3.38281 -14.53516,-10.35156 0,-4.58203 3.78125,-7.96485 9.85547,-10.75391 1.49219,0.9961 7.86328,4.77735 8.85938,5.375 4.18359,2.49219 6.96875,4.38281 6.96875,8.76172 0,4.67969 -6.17188,6.96875 -11.14844,6.96875 z m 64.11328,-56.84766 c -1.29297,3.78516 -2.78516,6.375 -4.57813,9.16016 -2.58984,4.18359 -12.34375,15.92969 -15.73046,15.92969 -0.79688,0 -1.59375,-0.59766 -1.59375,-1.59375 0,-1.98828 2.1914,-7.36719 4.67968,-13.23828 3.78516,-8.96094 5.67578,-14.23828 5.67578,-16.62891 0,-1.98828 -1.39453,-4.17969 -4.18359,-4.17969 -8.46094,0 -14.93359,7.76563 -16.52344,9.5586 -0.19922,0.39453 -0.19922,0.59375 0,0.79297 l 1.09375,0.99609 c 0.29688,0.39844 0.89453,0.39844 1.09375,0 1.79297,-1.98828 5.57813,-5.375 7.16797,-5.375 0.9961,0 1.79297,0.59766 1.79297,1.59375 0,1.39453 -1.49219,6.07031 -4.28125,12.24609 -4.08203,9.0586 -6.46875,14.23438 -6.46875,18.01953 0,1.98829 2.1875,4.57813 4.57813,4.57813 9.75781,0 19.3125,-13.33984 23.29687,-19.01563 l 0.69531,0.39844 c -1.09375,2.88672 -5.47656,14.23828 -5.47656,15.63281 0,1.78907 1.19531,2.98438 3.1875,2.98438 8.36328,0 15.53125,-8.36328 16.52734,-9.95703 0.19922,-0.39453 0.19922,-0.79297 0,-0.99219 l -1.19531,-0.89844 c -0.39844,-0.29687 -0.79687,-0.29687 -0.99609,0.10157 -1.39453,1.78906 -5.17578,5.57421 -6.57031,5.57421 -0.59766,0 -0.9961,-0.19921 -0.9961,-1.19531 0,-0.59765 1.19531,-4.57812 3.98438,-12.54297 l 6.96875,-20.30859 c 0.19922,-0.79688 0,-1.19531 -0.9961,-1.19531 h -6.76953 c -0.59765,0 -1.19531,0 -1.39453,0.59765 z m 53.5625,-10.75 c -0.59766,0 -1.19531,0.19922 -1.59375,0.79688 l -1.58984,2.78516 c -1.19532,-1.58985 -3.1875,-3.38282 -7.56641,-3.38282 -13.34375,0 -27.28125,21.90235 -27.28125,35.24219 0,4.18359 3.58594,7.16797 6.17187,7.16797 8.16407,0 16.32813,-10.55078 20.51172,-16.72656 l 0.59766,0.19922 c -3.58594,10.35546 -4.18359,12.54687 -4.18359,13.9375 0,1.59375 0.99609,2.58984 3.1875,2.58984 7.76562,0 14.73437,-8.36328 15.73046,-10.35156 0.19922,-0.59766 0.19922,-0.9961 0,-1.19532 l -1.19531,-0.89843 c -0.39844,-0.29688 -0.59765,-0.0977 -0.99609,0.30078 -0.79688,0.99609 -4.77735,5.77344 -6.17188,5.77344 -0.79687,0 -1.19531,-0.19922 -1.19531,-1.19532 0,-1.19531 3.78125,-12.74218 4.17969,-14.53515 0.79687,-2.58985 5.57812,-15.33203 7.36719,-19.51172 0.19921,-0.59766 0,-0.9961 -0.59766,-0.9961 z m -25.88281,35.83985 c -1.59375,0 -2.39063,-0.9961 -2.39063,-3.1875 0,-5.57422 2.78906,-14.53516 8.36328,-22.39844 2.58594,-3.68359 5.57422,-6.07422 8.16407,-6.07422 2.78515,0 4.57812,2.78906 4.57812,4.38281 0,3.1836 -0.99609,6.17188 -2.39062,8.95704 -1.78907,3.78515 -12.54297,18.32031 -16.32422,18.32031 z m 47.08984,35.34375 c 7.56641,0 12.14453,-1.39453 15.92969,-3.58594 6.17187,-3.38281 7.16797,-8.16406 7.16797,-10.55078 0,-2.98828 -1.59375,-6.37109 -7.56641,-9.95703 -6.96875,-4.17969 -11.94922,-6.67188 -13.73828,-7.96485 -0.79688,-0.59765 -1.99219,-1.79296 -1.99219,-2.78906 0,-1.58984 2.19141,-3.58203 4.17969,-4.57812 0.19922,0 1.59375,-0.19922 3.78516,-0.59766 11.54687,-1.79297 15.73046,-13.33984 15.73046,-18.11719 0,-1.69531 -0.19921,-3.88281 -0.59765,-5.07812 0.39844,-0.59766 1.59375,-1.19531 2.38672,-1.19531 0.79687,0 1.39453,0.39843 1.79297,0.99609 0.79687,0.79687 1.79296,1.39453 3.38671,1.39453 2.38672,0 3.58204,-1.79297 3.58204,-3.58594 0,-1.79297 -1.19532,-4.3789 -4.37891,-4.3789 -3.38672,0 -6.76953,2.08984 -8.36328,3.28515 -0.9961,-1.09765 -3.78516,-4.28125 -9.75781,-4.28125 -12.54297,0 -19.51172,11.54688 -19.51172,18.91407 0,6.87109 3.58203,9.85546 8.16406,11.64843 l -0.19922,0.39844 c -5.77344,2.78906 -8.5625,5.17578 -8.5625,7.36719 0,1.99219 0.79688,3.78515 3.78125,5.97265 -2.98437,1.19532 -8.55859,3.38672 -12.54297,6.76954 -2.98437,2.39062 -4.17969,4.38281 -4.17969,7.5664 0,6.375 9.75391,12.34766 21.50391,12.34766 z m 4.57813,-43.10938 c -2.39063,0 -3.58204,-1.79297 -3.58204,-5.57422 0,-5.07812 0.59766,-9.05859 4.48047,-15.23437 1.69141,-2.6875 3.28516,-3.88281 5.47266,-3.88281 2.78906,0 3.58594,2.1914 3.58594,6.07422 0,7.07031 -3.78516,18.61718 -9.95703,18.61718 z m -2.19141,39.52344 c -7.36719,0 -14.53516,-3.38281 -14.53516,-10.35156 0,-4.58203 3.78516,-7.96485 9.85938,-10.75391 1.49219,0.9961 7.86328,4.77735 8.85937,5.375 4.17969,2.49219 6.96875,4.38281 6.96875,8.76172 0,4.67969 -6.17187,6.96875 -11.15234,6.96875 z m 56.84766,-36.93359 c -0.19922,-0.19922 -0.59766,0 -0.79688,0.19922 -2.1875,2.98437 -6.17187,5.97265 -10.75,5.97265 -2.78906,0 -5.375,-2.39062 -5.375,-6.37109 0,-3.58594 0.59766,-6.3711 0.99219,-7.36719 3.78515,-0.19922 9.16015,-1.39453 14.53906,-4.18359 5.77344,-3.1836 9.15625,-7.76563 9.15625,-12.83985 0,-2.89062 -2.38672,-5.875 -6.96875,-5.875 -5.375,0 -10.94922,2.58594 -14.93359,6.17188 -8.16407,7.36719 -12.34375,17.92187 -12.34375,25.6875 0,6.96875 3.98047,10.55078 10.55078,10.55078 8.76172,0 15.53125,-6.37109 17.72265,-9.95703 0.19922,-0.39453 0.19922,-0.59375 -0.29687,-0.89453 z m -3.98047,-25.6875 c 2.1914,0 2.98828,1.79297 2.98828,3.58593 0,2.78516 -1.99219,5.77344 -4.1836,7.56641 -3.38281,2.58594 -8.16406,3.78125 -9.95703,3.78125 1.19532,-5.375 6.17578,-14.93359 11.15235,-14.93359 z m 0,0"
     id="path8"
     style="fill:#ffffff" />
  <path
     fill-rule="nonzero"
     fill="rgb(0%, 0%, 0%)"
     fill-opacity="1"
     d="m 766.2987,38.925782 c 1.79297,0.59765 5.97266,1.19531 9.95703,1.19531 20.3086,0 28.8711,-10.95312 28.8711,-21.70312 0,-6.76954 -1.59375,-9.95704 -5.97266,-13.53907 -4.78125,-3.98437 -9.75781,-4.67968 -20.3125,-4.67968 -3.38281,0 -21.10547,0.29687 -22.10156,0.29687 -0.99219,0 -1.19141,0 -1.39063,0.59766 l -0.59765,2.08984 c 0,0.59766 0,0.99609 0.59765,0.99609 h 4.57813 c 3.78125,0 3.48437,3.58594 2.58984,6.8711 l -11.84765,44.80078 c -1.09766,4.08203 -2.6875,7.66406 -7.46875,7.66406 h -1.79297 c -0.79297,0 -0.99219,0.39844 -1.19141,0.9961 l -0.19922,1.99218 c 0,0.59766 0.19922,0.9961 0.79688,0.9961 1.39062,0 4.97656,-0.30078 13.14062,-0.30078 8.76172,0 12.94141,0.30078 14.13672,0.30078 0.79688,0 1.09375,-0.19922 1.19531,-0.89844 l 0.19922,-2.08984 c 0.0977,-0.59766 0,-0.9961 -0.79687,-0.9961 h -3.78516 c -3.78125,0 -4.17969,-3.28515 -3.18359,-7.0664 z m 9.35938,-35.14453 c 0.99609,-0.19922 2.39062,-0.19922 3.58203,-0.19922 4.58203,0 14.14062,2.28906 14.14062,14.03906 0,8.76172 -5.77734,19.11328 -18.32031,19.11328 -2.98828,0 -6.17187,-0.59765 -7.76562,-1.58984 z m 39.22656,63.41797 c 0.59766,0 0.99609,-0.19922 1.19141,-0.59766 l 3.38672,-10.15234 c 1.09375,-3.38672 2.1914,-5.97657 3.1875,-8.16407 2.98437,-5.77343 8.55859,-13.9375 11.34765,-13.9375 1.39453,0 1.99219,0.59766 2.78906,1.19141 0.79688,0.59766 1.78907,0.79687 2.98438,0.79687 1.79297,0 4.18359,-2.58593 4.18359,-5.57421 0,-2.98438 -2.39062,-4.97657 -5.17968,-4.97657 -6.57032,0 -13.63672,12.14453 -16.22657,17.71875 l -0.69531,-0.39843 c 2.1875,-6.57032 3.98047,-11.7461 3.98047,-13.53907 0,-1.78906 -0.99609,-3.78125 -3.98047,-3.78125 -8.16406,0 -13.9375,7.16797 -15.73047,10.15235 -0.19922,0.39843 -0.19922,0.79687 0,0.99609 l 1.19531,0.79688 c 0.39844,0.19921 0.79688,0.19921 0.9961,-0.19922 1.39062,-1.99219 5.375,-5.77344 7.16797,-5.77344 0.99218,0 1.78906,0.79687 1.78906,1.59375 0,1.79297 -3.28516,11.94531 -4.77734,16.92578 l -4.97657,16.125 c -0.19922,0.39844 0.19922,0.79688 0.79688,0.79688 z m 41.31641,0.99609 c 5.97265,0 10.55078,-2.19141 14.33593,-6.57031 5.97266,-6.57032 8.5625,-16.92578 8.5625,-23.29688 0,-8.96094 -6.57421,-12.54297 -12.34765,-12.54297 -5.375,0 -10.15235,1.99219 -14.13672,6.3711 -5.57422,6.07422 -8.36328,14.03906 -8.36328,22.39843 0,9.16016 6.07422,13.64063 11.94922,13.64063 z m -1.39453,-5.375 c -2.19141,0 -4.1836,-1.99219 -4.1836,-4.67969 0,-3.98047 1.99219,-9.95703 5.27735,-15.53125 4.8789,-8.16406 8.66406,-11.64844 12.74218,-11.64844 2.89063,0 4.28125,2.28907 4.28125,4.48047 0,3.58594 -3.08593,11.84766 -6.76953,18.1211 -3.88281,6.46875 -7.46484,9.25781 -11.34765,9.25781 z m 51.66799,-5.17578 c -0.1992,-0.19922 -0.59768,0 -0.79299,0.39453 -1.19532,1.39453 -5.07813,4.38281 -8.26563,4.38281 -2.58984,0 -4.08203,-2.1914 -4.08203,-7.16797 0,-5.375 1.39453,-11.55078 3.88281,-17.52343 1.89063,-4.37891 3.78516,-6.76954 5.97266,-6.76954 1.59375,0 2.49219,1.59375 3.08598,2.98829 0.5976,1.78906 1.7929,2.38671 3.3867,2.38671 1.9922,0 4.1797,-2.1875 4.1797,-4.97656 0,-1.79297 -1.6914,-5.57422 -6.8672,-5.57422 -12.34768,0 -23.19924,18.61719 -23.19924,32.55469 0,6.76953 4.98046,9.85547 8.96093,9.85547 7.36719,0 13.83981,-6.37109 15.33201,-8.5625 0.3985,-0.59766 0.1992,-0.79688 -0.1992,-0.99609 z m 35.1445,-1.39453 c -0.1992,-0.19922 -0.5976,0 -0.7969,0.19922 -2.1875,2.98437 -6.1718,5.97265 -10.75,5.97265 -2.789,0 -5.3789,-2.39062 -5.3789,-6.37109 0,-3.58594 0.5977,-6.3711 0.9961,-7.36719 3.7852,-0.19922 9.1602,-1.39453 14.5352,-4.18359 5.7773,-3.1836 9.1601,-7.76563 9.1601,-12.83985 0,-2.89062 -2.3906,-5.875 -6.9687,-5.875 -5.375,0 -10.9492,2.58594 -14.9336,6.17188 -8.1641,7.36719 -12.3438,17.92187 -12.3438,25.6875 0,6.96875 3.9805,10.55078 10.5508,10.55078 8.7617,0 15.5313,-6.37109 17.7227,-9.95703 0.1992,-0.39453 0.1992,-0.59375 -0.2969,-0.89453 z m -3.9805,-25.6875 c 2.1875,0 2.9844,1.79297 2.9844,3.58593 0,2.78516 -1.9883,5.77344 -4.1797,7.56641 -3.3867,2.58594 -8.164,3.78125 -9.957,3.78125 1.1953,-5.375 6.1719,-14.93359 11.1523,-14.93359 z m 36.0391,24.29297 c 0,-4.57813 -1.793,-8.06641 -3.7852,-10.75391 -1.0937,-1.49219 -4.5781,-5.57422 -4.5781,-8.95703 0,-4.38281 2.1914,-5.77735 4.1797,-5.77735 1.5938,0 1.9922,1.59375 2.3906,2.78907 0.5977,2.58984 2.1914,3.38281 3.9844,3.38281 2.1875,0 3.7813,-1.58984 3.7813,-4.17969 0,-4.17969 -4.3789,-5.57422 -7.7657,-5.57422 -9.3593,0 -14.7343,6.3711 -14.7343,12.74219 -0.1993,4.18359 1.6914,6.67188 3.6836,10.05469 2.0898,3.58594 4.6796,6.47265 4.4804,9.85547 0,4.18359 -2.1914,6.375 -4.9765,6.375 -1.793,0 -2.5899,-0.9961 -3.1875,-2.58985 -0.7969,-2.39062 -2.3907,-3.98437 -4.7774,-3.98437 -2.1914,0 -3.7851,1.79297 -3.7851,4.18359 0,3.38281 3.3867,5.77344 9.957,5.77344 8.9609,0 15.1328,-5.57422 15.1328,-13.33984 z m 31.06249,0 c 0,-4.57813 -1.793,-8.06641 -3.7852,-10.75391 -1.09369,-1.49219 -4.57809,-5.57422 -4.57809,-8.95703 0,-4.38281 2.1914,-5.77735 4.17969,-5.77735 1.5938,0 1.9922,1.59375 2.3906,2.78907 0.5977,2.58984 2.1914,3.38281 3.9805,3.38281 2.1914,0 3.7852,-1.58984 3.7852,-4.17969 0,-4.17969 -4.3789,-5.57422 -7.7657,-5.57422 -9.35929,0 -14.73429,6.3711 -14.73429,12.74219 -0.1993,4.18359 1.6914,6.67188 3.6836,10.05469 2.0898,3.58594 4.6796,6.47265 4.4804,9.85547 0,4.18359 -2.1914,6.375 -4.9765,6.375 -1.793,0 -2.5899,-0.9961 -3.1875,-2.58985 -0.7969,-2.39062 -2.3907,-3.98437 -4.7774,-3.98437 -2.1914,0 -3.7851,1.79297 -3.7851,4.18359 0,3.38281 3.3867,5.77344 9.957,5.77344 8.9609,0 15.13279,-5.57422 15.13279,-13.33984 z m 0,0"
     id="path10"
     style="fill:#ffffff" />
</svg>
