<svg
   id="usc-logo-text"
   height="38"
   viewBox="0 0 168.0128 61.500001"
   preserveAspectRatio="xMinYMin"
   class="logo-usc-responsive"
   version="1.1"
   id="svg191"
   sodipodi:docname="usc-logo-text.svg"
   width="168.0128"
   inkscape:version="1.2.1 (9c6d41e410, 2022-07-14, custom)"
   xmlns:inkscape="http://www.inkscape.org/namespaces/inkscape"
   xmlns:sodipodi="http://sodipodi.sourceforge.net/DTD/sodipodi-0.dtd"
   xmlns="http://www.w3.org/2000/svg"
   xmlns:svg="http://www.w3.org/2000/svg">
  <defs
     id="defs195" />
  <sodipodi:namedview
     id="namedview193"
     pagecolor="#000000"
     bordercolor="#666666"
     borderopacity="1.0"
     inkscape:showpageshadow="2"
     inkscape:pageopacity="0"
     inkscape:pagecheckerboard="0"
     inkscape:deskcolor="#d1d1d1"
     showgrid="false"
     inkscape:zoom="4.2268657"
     inkscape:cx="40.455508"
     inkscape:cy="13.721751"
     inkscape:window-width="1920"
     inkscape:window-height="1039"
     inkscape:window-x="0"
     inkscape:window-y="41"
     inkscape:window-maximized="1"
     inkscape:current-layer="svg191" />
  <path
     class="text-usc-acronym"
     d="M 3.2,3.8 C 3.2,2.6 2.9,2 2,2 H 0.3 C 0.1,2 0,1.9 0,1.7 V 0.8 C 0,0.6 0.1,0.5 0.4,0.5 c 0.4,0 2.1,0.1 5.6,0.1 3.1,0 4.8,-0.1 5.3,-0.1 0.2,0 0.3,0.1 0.3,0.3 V 1.7 C 11.6,1.9 11.5,2 11.3,2 H 9.8 C 8.7,2 8,2.7 8,3.4 8,3.8 7.9,6 7.9,8.2 v 4.5 c 0,1.8 0,4.4 0.1,5.6 0.1,1.7 0.4,3.4 1.3,4.5 1.2,1.7 3.2,2.3 5,2.3 1.7,0 3.7,-0.7 4.9,-1.8 1.4,-1.4 2.1,-3.5 2.1,-6.2 V 10.5 C 21.3,7.6 21,4.3 20.9,3.5 20.8,2.5 20.2,1.9 19.4,1.9 H 18.1 C 17.9,1.9 17.8,1.8 17.8,1.6 V 0.8 c 0,-0.2 0.1,-0.3 0.3,-0.3 0.4,0 2.1,0.1 4.5,0.1 2.3,0 3.4,-0.1 3.7,-0.1 0.3,0 0.4,0.1 0.4,0.3 v 0.8 c 0,0.2 0,0.3 -0.2,0.3 h -1.3 c -1.3,0 -1.5,1 -1.5,1.4 -0.1,0.4 -0.1,5.6 -0.1,6 0,0.5 -0.1,6.9 -0.2,8.4 -0.2,3 -1.1,5.3 -3.1,7 C 18.8,26.1 16.4,27 13.6,27 11.8,27 9.7,26.7 8.3,26.1 6.2,25.2 4.7,23.5 4,21.2 3.5,19.6 3.3,17.2 3.3,12.4 Z m 24.4,14.6 c 0.1,0 0.2,0.1 0.2,0.3 0.1,1.2 0.4,2.6 1.4,4.2 1.1,1.8 3,2.6 4.8,2.6 2,0 4.8,-1.2 4.8,-4.3 0,-3.4 -1.5,-4.5 -5.4,-5.9 -1.2,-0.5 -3.6,-1.5 -5.3,-3.1 -1.2,-1.2 -1.8,-3 -1.8,-5.2 0,-2.1 0.8,-3.7 2.6,-5.1 1.5,-1.2 3.1,-1.8 5.2,-1.8 2.4,0 3.9,0.6 4.6,0.9 0.4,0.1 0.6,0.1 0.8,-0.1 L 40,0.4 c 0.1,-0.1 0.3,-0.2 0.5,-0.2 0.2,0 0.3,0.2 0.3,0.6 0,0.6 0.6,5.7 0.6,6.1 0,0.1 -0.1,0.2 -0.2,0.3 l -0.6,0.2 c -0.1,0 -0.3,0 -0.4,-0.2 -0.4,-1 -1,-2.5 -2.3,-3.9 -1,-1 -2.1,-1.5 -3.8,-1.5 -2.9,0 -4.1,2.3 -4.1,3.7 0,1.2 0.1,2.3 1,3.3 1,1 3,1.8 4.5,2.3 2.1,0.7 3.9,1.4 5.3,2.9 1.2,1.2 1.8,2.8 1.8,5.2 0,4.5 -2.9,8.1 -7.8,8.1 -3,0 -4.8,-0.7 -6.2,-1.8 -0.4,-0.3 -0.7,-0.4 -0.9,-0.4 -0.2,0 -0.4,0.3 -0.6,0.7 -0.2,0.4 -0.4,0.4 -0.7,0.4 -0.3,0 -0.4,-0.2 -0.4,-0.6 0.1,-0.4 0.6,-6.4 0.7,-6.8 0,-0.2 0.1,-0.3 0.2,-0.3 z m 40.7,2.2 c 0.1,0.1 0.1,0.2 0.1,0.4 -2.2,3.2 -5.7,6.2 -10.9,6.2 -4.7,0 -7.3,-1.4 -9.6,-3.4 -2.7,-2.4 -4,-6.7 -4,-9.9 0,-3.6 1.2,-7 3.7,-9.8 2,-2.1 5.1,-3.9 9.5,-3.9 3.4,0 6.1,1 7.4,1.8 0.5,0.3 0.7,0.3 0.7,0 l 0.3,-1 c 0.1,-0.2 0.1,-0.2 0.6,-0.2 0.5,0 0.5,0.1 0.5,0.6 0,0.7 0.7,6.5 0.9,7.6 0,0.2 0,0.3 -0.1,0.4 L 66.7,9.6 C 66.5,9.7 66.4,9.5 66.3,9.2 65.9,7.9 65,6.1 63.4,4.4 61.8,2.9 59.9,1.7 57,1.7 c -5.9,0 -8.3,5.3 -8.3,10.6 0,2.3 0.7,6.6 3.4,9.5 2.4,2.6 4.5,2.9 6.3,2.9 4,0 7.2,-2 8.8,-4.2 0.2,-0.3 0.3,-0.4 0.4,-0.3 z"
     id="path177"
     style="fill:#fbbf15;fill-opacity:1" />
  <path
     class="text-usc-full"
     d="m 79.7,26.3 c -2.5,-1 -3.8,-2.6 -4.4,-4.9 -0.4,-1.6 -0.6,-4.1 -0.6,-8.9 V 3.8 C 74.7,2.5 74.4,1.9 73.3,1.9 H 71.6 C 71.4,1.9 71.3,1.8 71.3,1.6 V 0.8 c 0,-0.2 0,-0.3 0.3,-0.3 0.4,0 2.2,0.1 5,0.1 2.9,0 4.6,-0.1 5,-0.1 0.3,0 0.3,0.1 0.3,0.2 v 1 c 0,0.2 0,0.3 -0.3,0.3 H 79.8 C 78.7,2 78.1,2.7 78,3.5 78,3.8 77.9,6.4 77.9,8.3 v 2.4 c 0,1.9 0.1,6.6 0.2,7.8 0,1.7 0.3,3.4 1.2,4.7 1.4,2 3.7,2.6 5.8,2.6 2.1,0 4.2,-0.7 5.5,-2 1.4,-1.5 1.9,-3.7 1.9,-6.5 V 9.5 C 92.5,6.7 92.4,4.6 92.3,3.7 92.2,2.7 91.6,2.1 90.7,2.1 H 89.1 C 88.9,2.1 88.8,2 88.8,1.8 v -1 c 0,-0.2 0,-0.3 0.3,-0.3 0.4,0 2.1,0.1 4.5,0.1 2.5,0 3.7,-0.1 4,-0.1 0.3,0 0.4,0.1 0.4,0.3 V 1.6 C 98,1.8 98,2 97.8,2 h -1.5 c -1.4,0 -1.5,1 -1.6,1.5 0.1,0.3 0.1,5.5 0.1,6 0,0.5 -0.1,6.9 -0.2,8.4 -0.2,3 -1,5.3 -3.1,7.1 -1.5,1.4 -3.7,2.2 -6.9,2.2 -1.8,-0.1 -3.7,-0.3 -4.9,-0.9 m 31.5,-1.7 c 0,0.6 0.3,0.8 0.8,0.8 h 1.2 c 0.3,0 0.4,0.1 0.4,0.3 v 0.6 c 0,0.3 -0.1,0.4 -0.3,0.4 -0.3,0 -1.4,-0.1 -3.5,-0.1 -1.9,0 -3,0.1 -3.3,0.1 -0.2,0 -0.3,-0.1 -0.3,-0.4 v -0.6 c 0,-0.3 0.1,-0.3 0.5,-0.3 h 1.1 c 0.4,0 0.7,-0.2 0.7,-0.8 0,-1 0.1,-2.1 0.1,-3.1 v -4.8 c 0,-1.5 0,-2.5 -1.1,-3.3 -0.9,-0.7 -1.8,-0.7 -2.7,-0.7 -0.6,0 -1.9,0.3 -3,1.4 -0.7,0.8 -0.8,1.8 -0.8,2.5 v 7.6 c 0,1 0.1,1.2 0.9,1.2 h 0.9 c 0.3,0 0.4,0.1 0.4,0.4 v 0.6 c 0,0.2 -0.1,0.3 -0.3,0.3 -0.3,0 -1.2,-0.1 -3.2,-0.1 -1.9,0 -3,0.1 -3.3,0.1 -0.2,0 -0.3,-0.1 -0.3,-0.3 v -0.7 c 0,-0.2 0.1,-0.3 0.4,-0.3 h 1.1 c 0.5,0 0.7,-0.1 0.7,-0.7 v -8.6 c 0,-1.1 -0.6,-1.7 -1.5,-2.2 l -0.3,-0.1 c -0.3,-0.1 -0.3,-0.2 -0.3,-0.3 v -0.2 c 0,-0.2 0.1,-0.3 0.3,-0.4 l 3.2,-1.8 c 0.3,-0.1 0.5,-0.3 0.7,-0.3 0.2,0 0.3,0.1 0.3,0.4 l 0.3,2.2 h 0.1 c 1.1,-1.3 3.2,-2.7 5,-2.7 1.1,0 2.2,0.2 3.1,0.8 1.1,0.7 2,2.6 2,3.5 z m 6.1,-8.7 c 0,-1.2 -0.2,-1.9 -2.1,-2.2 -0.3,0 -0.3,-0.1 -0.3,-0.3 v -0.3 c 0,-0.1 0.1,-0.2 0.3,-0.3 1.2,-0.4 2.6,-1 4,-1.8 0.3,-0.1 0.5,-0.2 0.7,-0.2 0.2,0 0.2,0.2 0.2,0.4 -0.1,0.6 -0.1,2.9 -0.1,6 v 7.1 c 0.1,0.7 0.2,1 0.6,1 h 1.7 c 0.3,0 0.4,0.1 0.4,0.3 v 0.6 c 0,0.3 -0.1,0.4 -0.3,0.4 -0.3,0 -2,-0.1 -3.5,-0.1 -2.1,0 -3.6,0.1 -4,0.1 -0.2,0 -0.3,-0.1 -0.3,-0.3 v -0.7 c 0,-0.2 0.1,-0.3 0.4,-0.3 h 1.8 c 0.4,0 0.6,-0.1 0.6,-0.7 V 21.3 Z M 115.7,4.7 c 0,-0.9 0.8,-1.9 2.2,-1.9 1.3,0 1.9,1 1.9,1.8 0,1 -0.7,2 -2.1,2 -0.8,0 -2,-0.7 -2,-1.9 m 14.6,18.5 h 0.1 c 0.6,-1.4 3.2,-7.7 3.5,-9.1 0.3,-1 0,-1.6 -0.7,-1.6 h -0.7 c -0.1,0 -0.1,-0.2 -0.1,-0.4 v -0.7 c 0,-0.2 0.1,-0.3 0.2,-0.3 0.5,0 1.3,0.1 2.9,0.1 1.4,0 2.3,-0.1 2.6,-0.1 0.3,0 0.3,0 0.3,0.3 V 12 c 0,0.3 0,0.4 -0.2,0.4 h -0.7 c -0.4,0 -0.8,0.1 -1.1,0.4 -0.5,0.5 -2.4,4.5 -2.9,5.9 -0.4,1.1 -3.2,7.3 -3.3,7.5 -0.3,0.5 -0.5,0.8 -0.9,0.8 -0.4,0 -0.6,-0.3 -0.8,-0.8 -0.1,-0.2 -2.7,-7.1 -2.9,-7.4 -0.1,-0.3 -1.6,-4.5 -1.9,-5.1 -0.5,-1.1 -0.8,-1.4 -1.5,-1.4 h -0.7 c -0.2,0 -0.2,-0.1 -0.2,-0.4 v -0.7 c 0,-0.3 0.1,-0.3 0.4,-0.3 0.4,0 1,0.1 3.1,0.1 1.9,0 2.9,-0.1 3.3,-0.1 0.3,0 0.4,0.1 0.4,0.3 v 0.7 c 0,0.2 0,0.4 -0.3,0.4 h -0.7 c -0.4,0 -0.7,0.2 -0.7,0.7 0,0.7 1,3.7 1.2,4.3 0.4,0.9 1.9,5.1 2.3,5.9 m 10,-6.4 c -0.1,0.3 -0.1,0.9 -0.1,1.8 0,3.6 2.3,6.3 5.2,6.3 2.2,0 3.8,-1.3 4.4,-2.5 0.1,-0.1 0.2,-0.2 0.3,-0.2 l 0.5,0.3 c 0.1,0 0.2,0.1 0,0.5 -0.7,1.5 -2.6,4 -5.8,4 -2.1,0 -4.4,-0.6 -5.8,-2.6 -1.3,-1.9 -1.6,-3.2 -1.6,-5.8 0,-1.4 0.4,-3.9 2.3,-5.8 1.6,-1.6 3.4,-1.9 5.2,-1.9 4.2,0 5.4,4 5.4,5.4 0,0.5 -0.4,0.6 -1,0.6 z m 5.8,-1.1 c 0.7,0 1,-0.2 1,-0.5 0,-0.8 -0.4,-3.3 -2.8,-3.3 -1.6,0 -3.1,1.1 -3.8,3.8 z m 7.7,1.1 c 0,-1.9 -0.3,-2.2 -1.3,-2.8 l -0.7,-0.4 c -0.2,-0.1 -0.3,-0.1 -0.3,-0.3 v -0.2 c 0,-0.1 0.1,-0.2 0.3,-0.3 l 3.6,-1.9 c 0.2,-0.1 0.4,-0.1 0.5,-0.1 0.2,0 0.3,0.2 0.3,0.4 l 0.2,2.5 h 0.1 c 1.1,-1.7 2.8,-3.2 4.4,-3.2 1.2,0 1.9,0.8 1.9,1.6 0,1.1 -0.9,1.8 -1.5,1.8 -0.4,0 -0.8,-0.1 -1.1,-0.3 -0.3,-0.2 -0.7,-0.3 -1.2,-0.3 -0.6,0 -1.5,0.4 -2.2,1.5 -0.2,0.4 -0.4,1.1 -0.4,1.2 v 7.8 c 0,1.1 0.3,1.5 1,1.5 h 1.7 c 0.2,0 0.3,0.1 0.3,0.3 v 0.7 c 0,0.2 0,0.3 -0.2,0.3 -0.2,0 -1.9,-0.1 -3.9,-0.1 -2.3,0 -3.8,0.1 -4,0.1 -0.1,0 -0.2,-0.1 -0.2,-0.4 v -0.6 c 0,-0.3 0.1,-0.3 0.4,-0.3 h 1.4 c 0.5,0 0.8,-0.2 0.8,-0.7 v -4.4 z m 9.9,9.1 c -0.2,-0.1 -0.2,-0.3 -0.2,-0.5 l -0.6,-3.5 c 0,-0.2 0.1,-0.3 0.2,-0.3 l 0.5,-0.1 c 0.1,0 0.3,0 0.3,0.2 l 0.9,1.8 c 0.7,1.4 1.2,2.3 3.2,2.3 1.3,0 2.9,-0.8 2.9,-2.5 0,-1.6 -0.8,-2.6 -3.6,-3.4 -2.2,-0.6 -4.3,-1.8 -4.3,-4.7 0,-2.5 2.4,-4.5 5.1,-4.5 1.8,0 2.7,0.4 3.4,0.8 0.5,0.3 0.6,0.4 0.7,0.7 l 0.6,2.6 c 0,0.1 -0.1,0.3 -0.3,0.3 l -0.4,0.1 c -0.1,0 -0.2,0 -0.3,-0.2 l -1.2,-1.7 c -0.4,-0.7 -1.1,-1.4 -2.6,-1.4 -1.4,0 -2.8,0.8 -2.8,2.4 0,2.1 1.7,2.5 3.5,3 2.7,0.8 4.4,1.9 4.4,4.7 0,3 -2.5,4.8 -5.6,4.8 -1.9,0.2 -3.4,-0.5 -3.8,-0.9 m 12.9,-10 c 0,-1.2 -0.2,-1.9 -2.1,-2.2 -0.3,0 -0.3,-0.1 -0.3,-0.3 v -0.3 c 0,-0.1 0.1,-0.2 0.3,-0.3 1.2,-0.4 2.6,-1 4,-1.8 0.3,-0.1 0.5,-0.2 0.7,-0.2 0.2,0 0.2,0.2 0.2,0.4 -0.1,0.6 -0.1,2.9 -0.1,6 v 7.1 c 0.1,0.7 0.2,1 0.6,1 h 1.7 c 0.3,0 0.4,0.1 0.4,0.3 v 0.6 c 0,0.3 -0.1,0.4 -0.3,0.4 -0.3,0 -2,-0.1 -3.5,-0.1 -2.1,0 -3.6,0.1 -4,0.1 -0.2,0 -0.3,-0.1 -0.3,-0.3 v -0.7 c 0,-0.2 0.1,-0.3 0.4,-0.3 h 1.8 c 0.4,0 0.5,-0.1 0.6,-0.7 V 21.3 Z M 174.9,4.7 c 0,-0.9 0.8,-1.9 2.2,-1.9 1.3,0 1.9,1 1.9,1.8 0,1 -0.7,2 -2.1,2 -0.7,0 -2,-0.7 -2,-1.9 M 186.6,22 c 0,2.7 1.2,3.2 1.9,3.2 0.8,0 1.9,-0.1 2.4,-0.5 0.2,-0.1 0.3,-0.1 0.4,0.1 l 0.2,0.3 c 0.1,0.1 0,0.3 -0.1,0.4 -0.4,0.4 -1.9,1.5 -4.1,1.5 -1.8,0 -3.6,-1.7 -3.6,-3.1 0,-1.5 0.1,-4.7 0.1,-5.2 v -0.9 c 0,-0.7 0,-3.1 0.1,-4.7 h -2.1 c -0.3,0 -0.5,-0.1 -0.5,-0.4 0,-0.3 0.2,-0.4 0.7,-0.7 0.9,-0.5 3.7,-3.4 4.2,-4.6 0.1,-0.3 0.3,-0.4 0.5,-0.4 0.3,0 0.4,0.3 0.4,0.6 l -0.2,3.6 h 5.1 c 0.2,0 0.3,0.2 0.3,0.3 l -0.4,1.3 c 0,0.2 -0.1,0.3 -0.3,0.3 h -4.7 c -0.1,1.7 -0.1,3.4 -0.1,5.1 V 22 Z m 6.3,12.7 c 0,-0.8 0.8,-1.4 1.7,-1.4 0.7,0 1.4,0.3 1.7,0.4 0.3,0 0.5,0 0.8,-0.2 0.5,-0.7 2.4,-4.8 2.9,-6.3 -0.2,-0.9 -4.1,-12.3 -4.4,-13.1 -0.4,-0.9 -0.8,-1.5 -1.7,-1.5 h -1 c -0.3,0 -0.3,-0.1 -0.3,-0.3 v -0.7 c 0,-0.1 0,-0.3 0.3,-0.3 0.3,0 1.2,0.1 3.4,0.1 1.9,0 3,-0.1 3.4,-0.1 0.3,0 0.3,0.1 0.3,0.3 v 0.8 c 0,0.2 0,0.3 -0.2,0.3 h -0.7 c -0.4,0 -0.5,0.3 -0.5,0.8 0.1,0.8 2.6,8.9 3,9.7 h 0.1 c 0.4,-0.6 3.6,-8.2 3.8,-9.1 0.2,-0.9 -0.1,-1.4 -0.6,-1.4 h -0.6 c -0.2,0 -0.3,-0.1 -0.3,-0.3 v -0.7 c 0,-0.2 0,-0.3 0.2,-0.3 0.5,0 1.2,0.1 3,0.1 1,0 1.8,-0.1 2.2,-0.1 0.2,0 0.2,0.1 0.2,0.3 v 0.7 c 0,0.2 0,0.3 -0.2,0.3 h -0.6 c -0.4,0 -0.9,0.2 -1.3,0.7 -0.8,1 -3.2,6.6 -5.8,12.3 -1.8,4.1 -3.2,7.5 -3.9,8.7 -0.5,1 -1.2,2.4 -3.1,2.4 -1.1,-0.3 -1.8,-1 -1.8,-2.1 m 24.3,-10.2 c -1.7,-2 -2,-3.4 -2,-6 0,-1.9 1,-4.2 3.2,-5.9 1.9,-1.5 3.7,-1.8 4.9,-1.8 2,0 4,1 5.1,2.1 1.6,1.7 2.5,3.6 2.5,6 0,4 -3.6,8.1 -8.1,8.1 -1.8,0 -4,-0.7 -5.6,-2.5 m 10.6,-5.9 c 0,-4.1 -3,-6.6 -4.8,-6.6 -1,0 -1.9,0.2 -2.8,1.2 -1.4,1.5 -1.9,3 -1.9,5.8 0,2.1 0.2,3.4 1.4,5.1 0.8,1.2 1.9,1.9 3.6,1.9 2.7,-0.1 4.5,-3.5 4.5,-7.4 m 6.8,-5.6 h -2.5 c -0.2,0 -0.3,-0.1 -0.2,-0.4 l 0.1,-1.1 c 0,-0.2 0.1,-0.3 0.4,-0.3 h 2.1 v -0.7 c 0,-3.6 1,-6 2.5,-7.6 1.9,-2.1 4,-2.9 6,-2.9 1.7,0 3.3,0.7 3.3,2.1 0,0.9 -1,1.6 -1.5,1.6 -0.4,0 -0.7,-0.1 -1,-0.2 -0.3,-0.2 -0.7,-0.7 -0.9,-0.8 -0.5,-0.6 -1,-0.8 -1.7,-0.8 -1,0 -1.9,0.3 -2.7,1.3 -1.4,1.7 -1.3,4.9 -1.3,7.5 v 0.7 h 4.4 c 0.3,0 0.3,0.2 0.3,0.4 l -0.2,1.2 c 0,0.1 -0.2,0.2 -0.5,0.2 h -4 v 11.4 c 0.1,0.6 0.2,1 1,1 h 2.1 c 0.3,0 0.4,0.1 0.4,0.3 v 0.6 c 0,0.3 -0.1,0.4 -0.3,0.4 -0.2,0 -1.6,-0.1 -4.4,-0.1 -2,0 -3.9,0.1 -4.2,0.1 -0.2,0 -0.3,-0.1 -0.3,-0.3 v -0.8 c 0,-0.2 0.1,-0.3 0.4,-0.3 h 1.8 c 0.7,0 0.8,-0.4 0.9,-1.3 z M 5.3,59.6 C 4.9,59.3 4.6,59.2 4.5,59.2 4.3,59.2 4.1,59.5 3.9,59.8 3.7,60.2 3.5,60.2 3.2,60.2 3,60.2 2.8,60 2.9,59.6 3,58.7 3.4,54 3.5,53 c 0,-0.2 0.1,-0.2 0.3,-0.2 h 0.5 c 0.1,0 0.2,0.1 0.2,0.3 0,1.2 0.1,2.4 1.3,4.2 1.1,1.7 3.1,2.7 5.1,2.7 2.2,0 5,-1.4 5,-4.7 0,-3.8 -2.7,-5.2 -5.6,-6.2 C 9.2,48.7 6.5,47.8 5,46.1 3.8,44.9 3.2,43.2 3.2,40.7 c 0,-1.8 1.1,-3.6 2.3,-4.7 1.3,-1.2 3.2,-1.8 5.1,-1.8 2.1,0 3.7,0.6 4.3,0.9 0.3,0.2 0.5,0.1 0.7,0 l 0.5,-0.4 c 0.2,-0.1 0.3,-0.2 0.5,-0.2 0.2,0 0.3,0.3 0.3,0.6 0,1.3 0.5,5 0.5,5.8 0,0.2 0,0.3 -0.2,0.3 l -0.4,0.1 c -0.1,0 -0.2,0 -0.2,-0.1 -0.3,-1.1 -0.8,-2.5 -2.3,-4.1 -1,-1.1 -2.3,-1.6 -4,-1.6 -3.3,0 -4.4,2.4 -4.4,4.3 0,1 0.2,2.2 1.1,3.2 1.1,1.1 3.1,1.9 4.2,2.2 2.5,0.8 4.6,1.4 5.9,3 1,1.1 1.6,2.6 1.6,5 0,4.3 -2.6,8 -7.5,8 -2.6,0.3 -4.4,-0.5 -5.9,-1.6 m 16.9,-0.7 c -1.7,-2 -2,-3.4 -2,-6 0,-1.9 1,-4.2 3.2,-5.9 1.9,-1.5 3.7,-1.8 4.9,-1.8 2,0 4,1 5.1,2.1 1.6,1.7 2.5,3.6 2.5,6 0,4 -3.6,8.1 -8.1,8.1 -1.8,0 -4.1,-0.7 -5.6,-2.5 M 32.8,53 c 0,-4.1 -3,-6.6 -4.8,-6.6 -1,0 -1.9,0.2 -2.8,1.2 -1.4,1.5 -1.9,3 -1.9,5.8 0,2.1 0.2,3.4 1.4,5.1 0.8,1.2 1.9,1.9 3.6,1.9 2.7,-0.1 4.5,-3.5 4.5,-7.4 M 51,53.5 c 0,1.8 0,3.6 0.1,4.3 0.1,1.1 0.5,1.3 1,1.3 0.2,0 0.8,0 1.2,-0.1 0.3,-0.1 0.4,0 0.4,0.1 l 0.1,0.5 c 0,0.2 0,0.3 -0.2,0.3 l -3.8,1.3 c -0.2,0.1 -0.4,0.2 -0.7,0.2 -0.1,0 -0.3,-0.1 -0.3,-0.4 l -0.3,-2.1 h -0.1 c -1,1.4 -3.2,2.6 -5,2.6 -1,0 -2.2,-0.1 -3.4,-1.7 -1.5,-1.9 -1.4,-3.2 -1.4,-7.2 v -4.3 c 0,-1 -0.5,-1.3 -1.4,-1.4 -0.6,0 -0.8,-0.1 -0.8,-0.3 v -0.7 c 0,-0.2 0.1,-0.3 0.4,-0.3 h 3.3 c 0.2,0 0.4,0 0.5,-0.1 H 41 c 0.3,0 0.4,0.2 0.4,0.4 0,0.3 -0.1,2.1 -0.1,4.2 v 2.7 c 0,1.5 -0.4,3.8 0.8,5.5 0.9,1.3 1.9,1.4 2.9,1.4 1,0 2.5,-1 3.2,-1.8 0.1,-0.2 0.4,-0.7 0.4,-1 v -8.7 c -0.1,-1 -0.7,-1.2 -1.6,-1.3 -0.6,0 -0.8,-0.1 -0.8,-0.3 V 46 c 0,-0.3 0.1,-0.3 0.4,-0.3 H 50 c 0.3,0 0.4,0 0.6,-0.1 H 51 c 0.2,0 0.4,0.2 0.3,0.4 0,0.3 -0.2,1.3 -0.2,4.9 z m 8,2.9 c 0,2.7 1.2,3.2 1.9,3.2 0.8,0 1.9,-0.1 2.4,-0.5 0.2,-0.1 0.3,-0.1 0.4,0.1 l 0.2,0.3 c 0.1,0.1 0,0.3 -0.1,0.4 -0.4,0.4 -1.9,1.5 -4.1,1.5 -1.8,0 -3.6,-1.7 -3.6,-3.1 0,-1.5 0.1,-4.7 0.1,-5.2 v -0.8 c 0,-0.7 0,-3.1 0.1,-4.7 h -2.2 c -0.3,0 -0.5,-0.1 -0.5,-0.4 0,-0.3 0.2,-0.4 0.7,-0.7 0.9,-0.5 3.7,-3.4 4.2,-4.6 0.1,-0.3 0.3,-0.4 0.5,-0.4 0.3,0 0.4,0.3 0.4,0.5 l -0.2,3.6 h 5.1 c 0.2,0 0.3,0.2 0.3,0.3 l -0.4,1.3 c 0,0.2 -0.1,0.3 -0.3,0.3 h -4.7 c -0.1,1.7 -0.1,3.4 -0.1,5.1 z M 67.5,41 c 0,-2.2 -0.4,-2.6 -1.8,-3.1 l -0.6,-0.2 c -0.2,-0.1 -0.3,-0.1 -0.3,-0.2 v -0.3 c 0,-0.1 0.1,-0.2 0.4,-0.4 l 3.8,-2 c 0.3,-0.1 0.6,-0.3 0.8,-0.3 0.2,0 0.4,0.3 0.3,0.9 C 70,36 70,43.5 70,45.3 v 2.3 h 0.2 c 1.3,-1.5 3.4,-2.4 5,-2.4 1.5,0 2.6,0.5 3.6,1.5 1.7,1.5 1.6,3.4 1.6,5.4 v 2.1 c 0,2.1 0.1,4.3 0.1,5 0,0.4 0.6,0.5 1.4,0.5 h 0.6 c 0.3,0 0.4,0.1 0.4,0.3 v 0.6 c 0,0.3 -0.1,0.4 -0.3,0.4 -0.3,0 -1.4,-0.1 -3.5,-0.1 -1.8,0 -3.1,0.1 -3.4,0.1 -0.3,0 -0.3,-0.1 -0.3,-0.4 V 60 c 0,-0.2 0,-0.3 0.3,-0.3 h 0.8 c 0.6,0 1.4,-0.1 1.4,-0.7 v -6.6 c 0,-2.1 -0.1,-3.5 -1.2,-4.5 -0.7,-0.7 -1.5,-1 -2.4,-1 -1.1,0 -2.4,0.4 -3.4,1.5 -0.3,0.4 -0.7,1.1 -0.7,1.8 v 8 c 0,1.2 0.1,1.5 0.8,1.5 h 1.1 c 0.3,0 0.4,0.1 0.4,0.3 v 0.6 c 0,0.3 -0.1,0.4 -0.3,0.4 -0.3,0 -1.8,-0.1 -3.5,-0.1 -1.8,0 -3.2,0.1 -3.6,0.1 -0.1,0 -0.3,-0.1 -0.3,-0.4 v -0.7 c 0,-0.3 0.1,-0.3 0.6,-0.3 h 0.8 c 0.6,0 1.1,-0.1 1.2,-0.6 0.1,-0.7 0.1,-4.7 0.1,-7.1 z M 86.1,51.2 C 86,51.5 86,52.1 86,53 c 0,3.6 2.3,6.3 5.2,6.3 2.2,0 3.8,-1.3 4.4,-2.5 0.1,-0.1 0.2,-0.2 0.3,-0.2 l 0.5,0.3 c 0.1,0 0.2,0.1 0,0.6 -0.7,1.5 -2.6,4 -5.8,4 -2.1,0 -4.4,-0.6 -5.8,-2.6 -1.3,-1.9 -1.6,-3.2 -1.6,-5.8 0,-1.4 0.4,-3.9 2.3,-5.8 1.6,-1.6 3.4,-1.9 5.2,-1.9 4.2,0 5.4,4 5.4,5.4 0,0.5 -0.4,0.6 -1,0.6 z m 5.8,-1.1 c 0.7,0 1,-0.2 1,-0.5 0,-0.8 -0.4,-3.3 -2.8,-3.3 -1.6,0 -3.2,1.1 -3.8,3.8 z m 8,1.1 c 0,-1.9 -0.3,-2.2 -1.3,-2.8 L 97.9,48 c -0.2,-0.1 -0.3,-0.1 -0.3,-0.3 v -0.2 c 0,-0.1 0.1,-0.2 0.3,-0.3 l 3.6,-1.9 c 0.2,-0.1 0.4,-0.1 0.5,-0.1 0.2,0 0.3,0.2 0.3,0.4 l 0.2,2.5 h 0.1 c 1.1,-1.7 2.8,-3.2 4.4,-3.2 1.2,0 1.9,0.8 1.9,1.6 0,1.1 -0.9,1.8 -1.5,1.8 -0.4,0 -0.8,-0.1 -1.1,-0.3 -0.3,-0.2 -0.7,-0.3 -1.2,-0.3 -0.6,0 -1.5,0.4 -2.2,1.5 -0.2,0.4 -0.4,1.1 -0.4,1.2 v 7.7 c 0,1.1 0.3,1.5 1,1.5 h 1.7 c 0.2,0 0.3,0.1 0.3,0.3 v 0.7 c 0,0.2 0,0.3 -0.2,0.3 -0.2,0 -1.9,-0.1 -3.9,-0.1 -2.3,0 -3.8,0.1 -4,0.1 -0.1,0 -0.2,-0.1 -0.2,-0.4 v -0.6 c 0,-0.3 0.1,-0.3 0.4,-0.3 H 99 c 0.6,0 0.8,-0.2 0.8,-0.7 v -4.4 z m 24.6,7.8 c 0,0.6 0.3,0.8 0.8,0.8 h 1.2 c 0.3,0 0.4,0.1 0.4,0.3 v 0.6 c 0,0.3 -0.1,0.4 -0.3,0.4 -0.3,0 -1.4,-0.1 -3.5,-0.1 -1.9,0 -3,0.1 -3.3,0.1 -0.2,0 -0.3,-0.1 -0.3,-0.4 v -0.6 c 0,-0.3 0.1,-0.3 0.5,-0.3 h 1.1 c 0.4,0 0.7,-0.2 0.7,-0.8 0,-1 0.1,-2.1 0.1,-3.1 v -4.8 c 0,-1.5 0,-2.5 -1.1,-3.3 -0.9,-0.7 -1.8,-0.7 -2.7,-0.7 -0.6,0 -1.9,0.3 -3,1.4 -0.7,0.8 -0.8,1.8 -0.8,2.5 v 7.6 c 0,1 0.1,1.2 0.9,1.2 h 0.9 c 0.3,0 0.4,0.1 0.4,0.4 v 0.6 c 0,0.2 -0.1,0.3 -0.3,0.3 -0.3,0 -1.2,-0.1 -3.2,-0.1 -1.9,0 -3,0.1 -3.3,0.1 -0.2,0 -0.3,-0.1 -0.3,-0.3 v -0.7 c 0,-0.2 0.1,-0.3 0.4,-0.3 h 1.1 c 0.5,0 0.7,-0.1 0.7,-0.7 v -8.6 c 0,-1.1 -0.6,-1.7 -1.5,-2.2 l -0.3,-0.1 c -0.3,-0.1 -0.3,-0.2 -0.3,-0.3 v -0.2 c 0,-0.2 0.1,-0.3 0.3,-0.4 l 3.1,-1.8 c 0.3,-0.1 0.5,-0.3 0.7,-0.3 0.2,0 0.3,0.1 0.3,0.4 l 0.3,2.2 h 0.1 c 1.1,-1.3 3.2,-2.7 5,-2.7 1.1,0 2.2,0.2 3.1,0.8 1.1,0.7 2,2.6 2,3.5 z m 14.1,-0.9 c -2.6,-2.5 -3.9,-6.7 -3.9,-10.3 0,-3.4 1.1,-6.9 3.7,-9.7 1.9,-2 5.2,-3.7 9.2,-3.7 3.3,0 6.1,1.2 7.4,2 0.5,0.3 0.7,0.3 0.7,0 l 0.3,-1.1 c 0.1,-0.2 0.1,-0.2 0.5,-0.2 0.3,0 0.4,0.1 0.4,0.6 0,0.7 0.7,6.1 0.9,7.1 0,0.2 0,0.3 -0.1,0.4 l -0.5,0.1 c -0.2,0 -0.3,0 -0.4,-0.3 -0.5,-1.2 -1.3,-3 -2.9,-4.5 -1.5,-1.6 -3.5,-2.8 -6.4,-2.8 -6.6,0 -9.2,5.8 -9.2,11.2 0,2.1 0.7,6.3 3.5,9.4 2.5,2.8 4.6,3.1 7,3.1 4.1,0 7.4,-2.3 9.1,-4.7 0.1,-0.2 0.2,-0.2 0.3,-0.1 l 0.5,0.4 c 0.1,0.1 0.2,0.1 0.1,0.3 -2.2,3.2 -5.8,6.2 -10.9,6.2 -4.4,0 -7.1,-1.4 -9.3,-3.4 m 32,-1.5 c 0,2.1 0.4,2.7 1.1,2.7 0.6,0 1.1,-0.3 1.3,-0.5 0.1,-0.2 0.2,-0.3 0.4,-0.1 l 0.4,0.3 c 0.1,0.1 0.2,0.3 0,0.7 -0.3,0.5 -1,1.8 -2.9,1.8 -1.3,0 -2.3,-1 -2.6,-2.5 h -0.1 c -0.8,0.9 -2,1.7 -3.6,2.2 -0.7,0.2 -1.4,0.2 -2.2,0.2 -0.9,0 -2.2,-0.7 -2.2,-3 0,-1.7 0.8,-3.1 3.7,-4.4 1.6,-0.7 3.6,-1.6 4.1,-2.1 v -2.3 c -0.1,-0.6 -0.1,-1.6 -0.5,-2.1 -0.4,-0.5 -1.1,-0.8 -2.2,-0.8 -0.7,0 -1.9,0.3 -2.4,0.8 -0.5,0.5 -0.2,1 -0.2,1.7 0,1.3 -0.4,2.1 -1.9,2.1 -0.6,0 -0.9,-0.3 -0.9,-1.2 0,-1.2 1,-2.6 2.5,-3.4 1.5,-0.9 2.8,-1.3 4.5,-1.3 1.7,0 2.4,0.5 2.9,1 0.8,0.8 0.8,1.6 0.8,2.6 z m -2.7,-3.7 c -1.3,1 -4.9,1.7 -4.9,4.8 0,1.4 0.8,2 1.9,2 1.1,0 3,-1.3 3,-2.3 z M 179.8,50 v 8.6 c 0,0.6 0.2,1.1 1,1.1 h 1.6 c 0.3,0 0.4,0.1 0.4,0.3 v 0.6 c 0,0.2 -0.1,0.4 -0.2,0.4 -0.3,0 -1.9,-0.1 -4.1,-0.1 -2.3,0 -3.8,0.1 -4.1,0.1 -0.2,0 -0.3,-0.1 -0.3,-0.4 V 60 c 0,-0.3 0.1,-0.3 0.5,-0.3 h 1.8 c 0.4,0 0.8,-0.3 0.8,-0.9 V 46.9 c 0,-2.6 0,-5.9 -0.1,-6.9 -0.1,-1.2 -0.7,-1.8 -1.8,-2.2 l -0.7,-0.3 c -0.2,-0.1 -0.2,-0.1 -0.2,-0.2 V 37 c 0,-0.1 0.1,-0.2 0.3,-0.3 1.3,-0.6 2.9,-1.2 4.3,-2.1 0.3,-0.2 0.6,-0.3 0.8,-0.3 0.3,0 0.3,0.2 0.3,0.7 0,2 -0.1,9.6 -0.1,11.7 z m 6.7,0.3 c 0,-1.2 -0.2,-1.9 -2.1,-2.2 -0.3,0 -0.3,-0.1 -0.3,-0.3 v -0.3 c 0,-0.1 0.1,-0.2 0.3,-0.3 1.2,-0.4 2.6,-1 4,-1.8 0.3,-0.1 0.5,-0.2 0.7,-0.2 0.2,0 0.2,0.2 0.2,0.4 -0.1,0.6 -0.1,2.9 -0.1,6 v 7.1 c 0.1,0.7 0.2,1 0.6,1 h 1.7 c 0.3,0 0.4,0.1 0.4,0.3 v 0.6 c 0,0.3 -0.1,0.4 -0.3,0.4 -0.3,0 -2,-0.1 -3.5,-0.1 -2.1,0 -3.6,0.1 -4,0.1 -0.2,0 -0.3,-0.1 -0.3,-0.3 V 60 c 0,-0.2 0.1,-0.3 0.4,-0.3 h 1.8 c 0.4,0 0.5,-0.1 0.6,-0.7 v -3.3 z m -1.7,-11.2 c 0,-0.9 0.8,-1.9 2.2,-1.9 1.3,0 1.9,1 1.9,1.8 0,1 -0.7,2 -2.1,2 -0.8,0 -2,-0.7 -2,-1.9 m 10.9,8.3 h -2.5 c -0.2,0 -0.3,-0.1 -0.2,-0.4 l 0.1,-1.1 c 0,-0.2 0.1,-0.3 0.4,-0.3 h 2.1 v -0.7 c 0,-3.6 1,-6 2.5,-7.6 1.9,-2.1 4,-2.9 6,-2.9 1.7,0 3.3,0.7 3.3,2.1 0,0.9 -1,1.6 -1.5,1.6 -0.4,0 -0.7,-0.1 -1,-0.2 -0.3,-0.2 -0.7,-0.7 -0.9,-0.8 -0.5,-0.6 -1,-0.8 -1.7,-0.8 -1,0 -1.9,0.3 -2.7,1.3 -1.4,1.7 -1.3,4.9 -1.3,7.5 v 0.7 h 4.4 c 0.3,0 0.3,0.2 0.3,0.4 l -0.2,1.2 c 0,0.1 -0.2,0.2 -0.5,0.2 h -4 V 59 c 0.1,0.6 0.2,1 1,1 h 2.1 c 0.3,0 0.4,0.1 0.4,0.3 v 0.6 c 0,0.3 -0.1,0.4 -0.3,0.4 -0.2,0 -1.6,-0.1 -4.4,-0.1 -2,0 -3.9,0.1 -4.2,0.1 -0.2,0 -0.3,-0.1 -0.3,-0.3 v -0.8 c 0,-0.2 0.1,-0.3 0.4,-0.3 h 1.8 c 0.7,0 0.8,-0.4 0.9,-1.3 z"
     id="path179"
     style="fill:#ffffff" />
  <path
     class="text-usc-full"
     d="m 204.4,58.9 c -1.7,-2 -2,-3.4 -2,-6 0,-1.9 1,-4.2 3.2,-5.9 1.9,-1.5 3.7,-1.8 4.9,-1.8 2,0 4,1 5.1,2.1 1.6,1.7 2.5,3.6 2.5,6 0,4 -3.6,8.1 -8.1,8.1 -1.8,0 -4,-0.7 -5.6,-2.5 M 215,53 c 0,-4.1 -3,-6.6 -4.8,-6.6 -1,0 -1.9,0.2 -2.8,1.2 -1.4,1.5 -1.9,3 -1.9,5.8 0,2.1 0.2,3.4 1.4,5.1 0.8,1.2 1.9,1.9 3.6,1.9 2.7,-0.1 4.5,-3.5 4.5,-7.4 m 6,-1.8 c 0,-1.9 -0.3,-2.2 -1.3,-2.8 L 219,48 c -0.2,-0.1 -0.3,-0.1 -0.3,-0.3 v -0.2 c 0,-0.1 0.1,-0.2 0.3,-0.3 l 3.6,-1.9 c 0.2,-0.1 0.4,-0.1 0.5,-0.1 0.2,0 0.3,0.2 0.3,0.4 l 0.2,2.5 h 0.1 c 1.1,-1.7 2.8,-3.2 4.4,-3.2 1.2,0 1.9,0.8 1.9,1.6 0,1.1 -0.9,1.8 -1.5,1.8 -0.4,0 -0.8,-0.1 -1.1,-0.3 -0.3,-0.2 -0.7,-0.3 -1.2,-0.3 -0.6,0 -1.5,0.4 -2.2,1.5 -0.2,0.4 -0.4,1.1 -0.4,1.2 v 7.7 c 0,1.1 0.3,1.5 1,1.5 h 1.7 c 0.2,0 0.3,0.1 0.3,0.3 v 0.7 c 0,0.2 0,0.3 -0.2,0.3 -0.2,0 -1.9,-0.1 -3.9,-0.1 -2.3,0 -3.8,0.1 -4,0.1 -0.1,0 -0.2,-0.1 -0.2,-0.4 v -0.6 c 0,-0.3 0.1,-0.3 0.4,-0.3 h 1.4 c 0.6,0 0.8,-0.2 0.8,-0.7 v -4.4 z m 24.6,7.8 c 0,0.6 0.3,0.8 0.8,0.8 h 1.2 c 0.3,0 0.4,0.1 0.4,0.3 v 0.6 c 0,0.3 -0.1,0.4 -0.3,0.4 -0.3,0 -1.4,-0.1 -3.5,-0.1 -1.9,0 -3,0.1 -3.3,0.1 -0.2,0 -0.3,-0.1 -0.3,-0.4 v -0.6 c 0,-0.3 0.1,-0.3 0.5,-0.3 h 1.1 c 0.4,0 0.7,-0.2 0.7,-0.8 0,-1 0.1,-2.1 0.1,-3.1 v -4.8 c 0,-1.5 0,-2.5 -1.1,-3.3 -0.9,-0.7 -1.8,-0.7 -2.7,-0.7 -0.6,0 -1.9,0.3 -3,1.4 -0.7,0.8 -0.8,1.8 -0.8,2.5 v 7.6 c 0,1 0.1,1.2 0.9,1.2 h 0.9 c 0.3,0 0.4,0.1 0.4,0.4 v 0.6 c 0,0.2 -0.1,0.3 -0.3,0.3 -0.3,0 -1.2,-0.1 -3.2,-0.1 -1.9,0 -3,0.1 -3.3,0.1 -0.2,0 -0.3,-0.1 -0.3,-0.3 v -0.7 c 0,-0.2 0.1,-0.3 0.4,-0.3 h 1.1 c 0.5,0 0.7,-0.1 0.7,-0.7 v -8.6 c 0,-1.1 -0.6,-1.7 -1.5,-2.2 l -0.3,-0.1 c -0.3,-0.1 -0.3,-0.2 -0.3,-0.3 v -0.2 c 0,-0.2 0.1,-0.3 0.3,-0.4 l 3.1,-1.8 c 0.3,-0.1 0.5,-0.3 0.7,-0.3 0.2,0 0.3,0.1 0.3,0.4 l 0.3,2.2 h 0.1 c 1.1,-1.3 3.2,-2.7 5,-2.7 1.1,0 2.2,0.2 3.1,0.8 1.1,0.7 2,2.6 2,3.5 z m 6.1,-8.7 c 0,-1.2 -0.2,-1.9 -2.1,-2.2 -0.3,0 -0.3,-0.1 -0.3,-0.3 v -0.3 c 0,-0.1 0.1,-0.2 0.3,-0.3 1.2,-0.4 2.6,-1 4,-1.8 0.3,-0.1 0.5,-0.2 0.7,-0.2 0.2,0 0.2,0.2 0.2,0.4 -0.1,0.6 -0.1,2.9 -0.1,6 v 7.1 c 0.1,0.7 0.2,1 0.6,1 h 1.7 c 0.3,0 0.4,0.1 0.4,0.3 v 0.6 c 0,0.3 -0.1,0.4 -0.3,0.4 -0.3,0 -2,-0.1 -3.5,-0.1 -2.1,0 -3.6,0.1 -4,0.1 -0.2,0 -0.3,-0.1 -0.3,-0.3 V 60 c 0,-0.2 0.1,-0.3 0.4,-0.3 h 1.8 c 0.4,0 0.6,-0.1 0.6,-0.7 V 55.7 Z M 250,39.1 c 0,-0.9 0.8,-1.9 2.2,-1.9 1.3,0 1.9,1 1.9,1.8 0,1 -0.7,2 -2.1,2 -0.8,0 -2,-0.7 -2,-1.9 m 18.6,17.5 c 0,2.1 0.4,2.7 1.1,2.7 0.6,0 1.1,-0.3 1.3,-0.5 0.1,-0.2 0.2,-0.3 0.4,-0.1 l 0.4,0.3 c 0.1,0.1 0.2,0.3 0,0.7 -0.3,0.5 -1,1.8 -2.9,1.8 -1.3,0 -2.3,-1 -2.6,-2.5 h -0.1 c -0.8,0.9 -2,1.7 -3.6,2.2 -0.7,0.2 -1.4,0.2 -2.2,0.2 -0.9,0 -2.2,-0.7 -2.2,-3 0,-1.7 0.8,-3.1 3.7,-4.4 1.6,-0.7 3.6,-1.6 4.1,-2.1 v -2.3 c -0.1,-0.6 -0.1,-1.6 -0.5,-2.1 -0.4,-0.5 -1.1,-0.8 -2.2,-0.8 -0.7,0 -1.9,0.3 -2.4,0.8 -0.5,0.5 -0.2,1 -0.2,1.7 0,1.3 -0.4,2.1 -1.9,2.1 -0.6,0 -0.9,-0.3 -0.9,-1.2 0,-1.2 1,-2.6 2.5,-3.4 1.5,-0.9 2.8,-1.3 4.5,-1.3 1.7,0 2.4,0.5 2.9,1 0.8,0.8 0.8,1.6 0.8,2.6 z m -2.7,-3.7 c -1.3,1 -4.9,1.7 -4.9,4.8 0,1.4 0.8,2 1.9,2 1.1,0 3,-1.3 3,-2.3 z"
     id="path181"
     style="fill:#ffffff" />
</svg>
