<svg
   id="svg191"
   height="38"
   viewBox="0 0 29.526315 72.2"
   preserveAspectRatio="xMinYMin"
   class="logo-usc-responsive"
   version="1.1"
   sodipodi:docname="usc-logo-shield.svg"
   width="29.526316"
   inkscape:version="1.2.1 (9c6d41e410, 2022-07-14, custom)"
   xmlns:inkscape="http://www.inkscape.org/namespaces/inkscape"
   xmlns:sodipodi="http://sodipodi.sourceforge.net/DTD/sodipodi-0.dtd"
   xmlns="http://www.w3.org/2000/svg"
   xmlns:svg="http://www.w3.org/2000/svg">
  <defs
     id="defs195" />
  <sodipodi:namedview
     id="namedview193"
     pagecolor="#000000"
     bordercolor="#666666"
     borderopacity="1.0"
     inkscape:showpageshadow="2"
     inkscape:pageopacity="0"
     inkscape:pagecheckerboard="0"
     inkscape:deskcolor="#d1d1d1"
     showgrid="false"
     inkscape:zoom="4.2268657"
     inkscape:cx="74.996468"
     inkscape:cy="16.087571"
     inkscape:window-width="1920"
     inkscape:window-height="1039"
     inkscape:window-x="0"
     inkscape:window-y="41"
     inkscape:window-maximized="1"
     inkscape:current-layer="svg191" />
  <g
     id="g189"
     style="fill:#ffffff">
    <path
       class="icon-shield"
       d="M 49.8,44.3 C 46.4,52.6 39.9,64 28.1,71.2 16.3,64 9.8,52.7 6.4,44.4 3.2,36.8 2.1,30.3 1.8,28.4 c 1.4,-0.8 2.8,-1.2 4.4,-1.2 1.1,0 2.7,0.2 3.6,0.5 l 0.5,0.1 c 0.5,0.1 1,0.3 1.5,0.4 1.7,0.5 3.7,1 5.2,1 1.7,0 4.3,-0.2 7.2,-1.2 0.8,-0.3 1.8,-0.6 2.9,-0.7 l 1,-0.1 h 0.1 l 1.5,0.1 c 0.9,0.2 1.8,0.4 2.5,0.7 2.9,1 5.5,1.2 7.2,1.2 1,0 2.3,-0.2 4.1,-0.7 0.7,-0.2 1.5,-0.4 2.2,-0.6 l 0.8,-0.2 c 0.9,-0.3 2.5,-0.5 3.6,-0.5 1.6,0 3,0.4 4.4,1.1 -0.4,1.8 -1.5,8.3 -4.7,16 M 1,16 18.1,19.8 c -0.2,0.3 -0.3,0.5 -0.4,0.8 L 1,18.3 V 16 m 0.6,-6.3 17.8,8.2 c -0.3,0.4 -0.7,0.8 -0.9,1.2 L 1.1,14.3 c 0.1,-1.5 0.3,-3 0.5,-4.6 M 2.1,7 c 0.7,0.2 2,0.4 3.8,0.6 L 20.3,17 19.7,17.6 1.9,8 C 2,7.6 2,7.3 2.1,7 m 7.7,0.8 c 1.9,0 3.6,-0.2 5.2,-0.5 l 7.3,8.2 c -0.6,0.3 -1.1,0.7 -1.6,1.1 L 8.7,7.8 h 1.1 m 9.3,-1.5 4.8,8.5 c -0.3,0.1 -0.6,0.3 -1,0.4 L 16.8,7 C 17.6,6.7 18.4,6.5 19.1,6.3 M 25.5,3.2 27,14.1 c -0.8,0.1 -1.6,0.2 -2.4,0.5 L 20.5,5.8 C 22.6,4.9 24.2,4 25.5,3.2 M 28,1.3 c 0.4,0.3 0.7,0.6 1.1,0.9 L 28.5,14 H 27.7 L 27,2.2 c 0.4,-0.4 0.8,-0.7 1,-0.9 m 2.6,1.9 c 1.7,1.1 3.4,1.9 4.9,2.5 l -4.1,8.8 C 30.6,14.3 29.9,14.1 29.1,14 Z m 6.3,3.1 c 1,0.4 1.8,0.6 2.3,0.7 L 33,15.2 C 32.7,15 32.4,14.9 32,14.8 Z m 4.2,1 c 1.8,0.3 3.7,0.5 5.6,0.5 h 0.7 l -12.1,8.8 c -0.5,-0.4 -1,-0.8 -1.6,-1.1 z m 9,0.3 C 51.9,7.4 53.3,7.1 54,7 c 0.1,0.3 0.1,0.6 0.2,0.9 l -17.9,9.6 -0.6,-0.6 z m 4.4,2 c 0.2,1.6 0.4,3.2 0.5,4.7 l -17.4,4.9 c -0.3,-0.5 -0.6,-0.9 -1,-1.3 z m 0.6,8.7 -16.8,2.2 C 38.2,20.2 38,20 37.9,19.7 L 55.1,16 v 2.3 M 50,21.9 c -1.1,0 -2.8,0.2 -3.9,0.5 l -0.8,0.2 c -0.7,0.2 -1.5,0.4 -2.3,0.6 -1,0.3 -2.5,0.6 -3.7,0.7 -0.1,-1 -0.4,-1.9 -0.8,-2.8 L 55,19.9 C 55,21 54.9,22.1 54.9,23 53.5,22.3 51.7,21.9 50,21.9 m 0,2.1 c -1.1,0 -2.8,0.2 -3.9,0.5 l -0.8,0.2 c -0.7,0.2 -1.5,0.4 -2.3,0.6 l 0.1,0.5 -0.1,-0.4 c -1.1,0.3 -2.7,0.7 -3.9,0.7 -1.6,0 -4.1,-0.2 -6.8,-1.2 C 31.6,24.7 30.7,24.4 29.7,24.2 29.1,24.1 28.5,24 28,24 c -0.4,0 -0.8,0 -1.2,0.1 -1.1,0.1 -2.2,0.5 -3.1,0.8 -2.8,1 -5.3,1.2 -6.9,1.2 -1.4,0 -3.3,-0.5 -4.9,-1 l -2,-0.6 C 8.9,24.2 7.3,24 6,24 c -1.7,0 -3.3,0.4 -4.8,1.2 0,-0.3 -0.1,-0.7 -0.1,-1 1.5,-0.8 3.3,-1.2 5,-1.2 1.1,0 2.7,0.2 3.6,0.5 l 2,0.6 0.1,-0.5 V 24 c 1.8,0.5 3.7,1 5.2,1 1.7,0 4.3,-0.2 7.2,-1.3 C 25,23.4 26,23.1 27.1,23 l 1,-0.1 1.5,0.1 c 0.9,0.2 1.8,0.4 2.5,0.7 2.9,1 5.5,1.2 7.2,1.2 1,0 2.3,-0.2 4.1,-0.7 0.8,-0.2 1.5,-0.4 2.3,-0.7 l 0.8,-0.2 c 0.9,-0.3 2.5,-0.5 3.6,-0.5 1.7,0 3.4,0.4 4.9,1.2 0,0.4 -0.1,0.8 -0.1,1.1 C 53.3,24.4 51.6,24 50,24 M 28.1,21.9 c -0.4,0 -0.8,0 -1.2,0.1 -1.1,0.1 -2.2,0.5 -3.1,0.8 -2.4,0.8 -4.6,1.1 -6.1,1.2 0.7,-5.1 5.1,-9 10.3,-9 5.2,0 9.6,3.9 10.3,9 -1.6,-0.1 -3.7,-0.3 -6,-1.2 C 31.6,22.6 30.7,22.2 29.7,22.1 29.2,22 28.6,21.9 28.1,21.9 M 1,19.9 17.5,21.1 C 17.1,22 16.9,23 16.7,24 15.4,23.9 13.6,23.5 12,23.1 L 10,22.5 C 9,22.2 7.4,22 6.1,22 4.3,22 2.5,22.4 1,23.2 c 0.1,-1 0,-2.1 0,-3.3 m 49,6.2 c -1.1,0 -2.8,0.2 -3.9,0.5 l -0.8,0.2 c -0.7,0.2 -1.4,0.4 -2.2,0.6 l 0.1,0.5 -0.2,-0.4 c -1.7,0.5 -3,0.7 -3.9,0.7 -1.6,0 -4.1,-0.2 -6.8,-1.2 -0.8,-0.3 -1.7,-0.6 -2.6,-0.7 -1,-0.2 -1.9,-0.2 -2.8,-0.1 -1.1,0.2 -2.2,0.5 -3.1,0.8 -2.8,1 -5.3,1.2 -6.9,1.2 -1.4,0 -3.3,-0.5 -4.9,-1 L 11.9,27.7 12,27.2 C 11.5,27.1 11,26.9 10.6,26.8 L 10,26.7 C 9,26.4 7.4,26.2 6.1,26.2 4.5,26.2 3,26.6 1.5,27.3 1.5,27.1 1.4,26.7 1.3,26.2 2.9,25.5 4.5,25 6.2,25 c 1.1,0 2.7,0.2 3.6,0.5 l 2,0.6 0.1,-0.5 -0.1,0.5 c 1.8,0.5 3.7,1 5.2,1 1.7,0 4.3,-0.2 7.2,-1.2 0.8,-0.3 1.8,-0.6 2.9,-0.8 l 1,-0.1 h 0.1 l 1.5,0.1 c 0.9,0.2 1.8,0.4 2.5,0.7 2.9,1 5.5,1.2 7.2,1.2 1,0 2.3,-0.2 4.1,-0.7 0.8,-0.2 1.5,-0.4 2.3,-0.7 l 0.8,-0.2 c 0.9,-0.3 2.5,-0.5 3.6,-0.5 1.7,0 3.3,0.4 4.7,1.2 -0.1,0.4 -0.1,0.8 -0.1,1 -1.7,-0.6 -3.2,-1 -4.8,-1 M 56.1,15.8 56,14.1 C 55.9,12.5 55.7,10.9 55.4,9.2 L 55.2,8.1 C 55.1,7.5 55,6.9 54.8,6.3 L 54.7,5.8 54.2,5.9 c 0,0 -0.8,0.2 -2.2,0.5 L 48.7,6.8 C 48,6.8 47.3,6.9 46.6,6.9 44.7,6.9 42.8,6.7 41,6.4 L 39.8,6.2 h -0.1 c 0,0 -1,-0.2 -2.4,-0.7 L 35.8,4.9 C 34.3,4.3 32.4,3.4 30.6,2.2 L 29.2,1 C 28.9,0.8 28.6,0.5 28.4,0.3 L 28,0 27.7,0.3 c 0,0 -0.3,0.3 -0.8,0.7 l -1.5,1.1 c -1.3,0.8 -3,1.8 -5.2,2.7 L 18.7,5.4 C 18,5.7 17.2,5.9 16.3,6.1 H 16.2 L 14.9,6.4 C 13.3,6.7 11.6,6.8 9.8,6.8 8.9,6.8 8.1,6.8 7.3,6.7 L 4,6.4 C 2.7,6.2 1.9,6 1.8,6 L 1.3,5.8 1.2,6.3 0.9,7.8 0.7,9.3 C 0.4,10.9 0.3,12.5 0.2,14.1 L 0.1,15.8 C 0,16.6 0,17.4 0,18.1 v 1.6 c 0.1,4.6 0.6,7.8 0.7,8.1 0.1,0.4 1,7.9 4.7,16.8 3.5,8.4 10.2,20 22.2,27.3 l 0.5,0.3 0.5,-0.3 c 12,-7.3 18.6,-18.9 22.1,-27.3 3.7,-9 4.7,-16.5 4.7,-16.9 0,-0.3 0.6,-3.4 0.7,-8 v -1.6 -2.3"
       id="path185"
       style="fill:#ffffff" />
    <path
       class="icon-shield"
       d="m 42,38.9 c -0.2,0.2 -0.3,0.2 -0.6,0.2 h -3.7 c -0.4,0 -0.8,-0.4 -0.8,-0.8 0,-0.4 0.4,-0.8 0.8,-0.8 h 3.7 c 0.4,0 0.8,0.4 0.8,0.8 0,0.3 0,0.5 -0.2,0.6 m -0.7,1.4 c -0.1,0.1 -0.3,0.2 -0.6,0.2 h -2.3 c -0.4,0 -0.6,-0.3 -0.7,-0.8 h 3.8 c 0,0.2 -0.1,0.4 -0.2,0.6 m -1,9.6 h -1.5 l -0.4,-8.8 h 2.3 z m 1,1.2 c 0,0.4 -0.3,0.6 -0.6,0.6 H 38.5 V 52 51.7 c -0.4,0 -0.6,-0.3 -0.6,-0.6 0,-0.4 0.3,-0.6 0.6,-0.6 h 2.1 c 0.4,0 0.7,0.3 0.7,0.6 m -1.7,5.5 c -0.3,0 -0.5,-0.2 -0.5,-0.5 l -0.2,-3.7 h 1.3 L 40,56.1 c 0,0.3 -0.2,0.5 -0.4,0.5 m -3,-20.9 c 0,-0.5 0.2,-0.9 0.4,-1.3 0.3,-0.5 0.5,-1.1 0.4,-1.8 0.4,0.2 0.8,0.4 1.2,0.8 -0.1,0.1 -0.2,0.2 -0.2,0.3 0,0 -1.5,1.5 -0.4,3.3 h -0.5 c -0.3,-0.1 -0.9,-0.4 -0.9,-1.3 m 3.2,-3.2 c 0.1,-0.2 0.1,-0.5 0,-0.7 0.6,0.6 1.3,1.4 1.3,2.5 0,1.3 -0.8,2.3 -1.2,2.7 h -0.2 c -0.3,-0.4 -0.8,-1.2 -0.2,-2.1 0.1,-0.2 0.6,-0.9 0.7,-1.1 0.1,-0.2 0.1,-0.3 0.1,-0.3 -0.1,0.1 -0.2,0.3 -0.2,0.3 -0.1,0.2 -0.6,0.7 -0.8,0.8 -0.8,1 -0.3,2 -0.1,2.4 h -0.7 c -1.2,-1.6 0.1,-2.8 0.2,-2.9 L 39,33.8 c 0.3,-0.4 0.6,-0.7 0.8,-1.3 m 1.8,0.5 c 0.3,-0.3 0.5,-0.5 0.7,-0.6 -0.2,1.4 0.6,2.7 0.6,2.8 0.3,1.2 -0.8,1.7 -1.1,1.9 h -0.9 c 0.4,-0.6 1,-1.5 1,-2.7 C 41.8,33.8 41.6,33 41.6,33 m 0.8,4.3 c 0.7,-0.4 1.4,-1.2 1,-2.4 0,0 -0.8,-1.6 -0.4,-2.9 l 0.1,-0.4 -0.5,0.1 c -0.1,0 -0.7,0.1 -1.4,0.9 -0.7,-1.1 -1.8,-1.8 -1.9,-1.9 l -1.1,-0.7 0.7,1.1 c 0.1,0.2 0.5,0.8 0.3,1.3 L 38.9,33 C 38.1,32.2 37,31.9 37,31.9 l -0.6,-0.2 0.2,0.6 c 0.3,0.8 0.1,1.3 -0.2,1.9 -0.2,0.5 -0.5,1 -0.5,1.6 0,0.8 0.4,1.3 0.8,1.6 -0.3,0.3 -0.5,0.6 -0.5,1 0,0.5 0.3,1 0.7,1.2 0.1,0.7 0.4,1.1 0.8,1.4 l 0.4,9 c -0.5,0.1 -1,0.6 -1,1.2 0,0.6 0.5,1.1 1.1,1.2 l 0.2,3.8 c 0,0.6 0.5,1.1 1.1,1.1 0.6,0 1.1,-0.5 1.1,-1 l 0.2,-3.8 c 0.6,-0.1 1.1,-0.6 1.1,-1.2 0,-0.6 -0.4,-1.1 -1,-1.2 l 0.4,-9 c 0.1,-0.1 0.2,-0.1 0.3,-0.2 0.3,-0.3 0.4,-0.7 0.4,-1.2 0.1,-0.1 0.2,-0.1 0.3,-0.2 0.3,-0.3 0.4,-0.6 0.4,-1 0.1,-0.6 0,-0.9 -0.3,-1.2 m -24.2,1.9 h -3.7 c -0.4,0 -0.8,-0.4 -0.8,-0.8 0,-0.2 0.1,-0.4 0.2,-0.6 0.2,-0.2 0.3,-0.2 0.6,-0.2 h 3.6 c 0.4,0 0.8,0.4 0.8,0.8 0.1,0.4 -0.3,0.8 -0.7,0.8 M 18,40.3 c -0.1,0.1 -0.3,0.2 -0.6,0.2 h -2.3 c -0.4,0 -0.6,-0.3 -0.8,-0.8 h 3.8 c 0.1,0.3 0,0.5 -0.1,0.6 m -1,9.6 h -1.5 l -0.4,-8.8 h 2.3 z m 1,1.3 c 0,0.2 -0.1,0.3 -0.2,0.5 -0.1,0.1 -0.3,0.2 -0.5,0.2 h -2.2 v 0.3 -0.3 c -0.4,0 -0.6,-0.3 -0.6,-0.6 0,-0.3 0.3,-0.6 0.6,-0.6 h 2.1 c 0.6,-0.2 0.8,0.1 0.8,0.5 m -1.7,5.4 c -0.3,0 -0.5,-0.2 -0.5,-0.5 l -0.2,-3.7 h 1.3 l -0.2,3.7 c 0.1,0.3 -0.2,0.5 -0.4,0.5 m -3,-20.9 c 0,-0.5 0.2,-0.9 0.4,-1.3 0.3,-0.5 0.5,-1.1 0.4,-1.8 0.4,0.2 0.8,0.4 1.2,0.8 -0.1,0.1 -0.2,0.2 -0.2,0.3 0,0 -1.5,1.5 -0.4,3.3 h -0.2 c -0.1,0 -0.2,0 -0.3,0.1 -0.1,-0.1 -0.9,-0.4 -0.9,-1.4 m 3.2,-3.2 c 0.1,-0.2 0.1,-0.5 0,-0.7 0.6,0.6 1.3,1.4 1.3,2.5 0,1.3 -0.8,2.3 -1.2,2.7 h -0.2 c -0.3,-0.4 -0.8,-1.2 -0.2,-2.1 0.1,-0.2 0.6,-0.9 0.7,-1.1 0.1,-0.2 0.1,-0.3 0.1,-0.3 -0.1,0.1 -0.2,0.3 -0.2,0.3 -0.1,0.2 -0.6,0.7 -0.8,0.8 -0.8,1 -0.3,2 -0.1,2.4 h -0.7 c -1.2,-1.6 0.1,-2.9 0.2,-2.9 l 0.3,-0.3 c 0.4,-0.4 0.6,-0.7 0.8,-1.3 m 1.8,0.5 c 0.3,-0.3 0.5,-0.5 0.7,-0.6 -0.1,1.4 0.6,2.7 0.6,2.7 0.3,1.2 -0.8,1.7 -1.1,1.9 h -0.9 c 0.4,-0.6 1,-1.5 1,-2.7 C 18.5,33.8 18.3,33 18.3,33 m 0.8,4.4 c 0.7,-0.4 1.4,-1.2 1,-2.4 0,0 -0.9,-1.6 -0.4,-2.9 l 0.1,-0.4 -0.5,0.1 c -0.1,0 -0.7,0.1 -1.4,0.9 -0.7,-1.1 -1.8,-1.8 -1.9,-1.9 l -1.1,-0.8 0.7,1.1 c 0.1,0.2 0.5,0.9 0.3,1.3 L 15.6,33 c -0.8,-0.8 -1.9,-1.1 -1.9,-1.1 l -0.6,-0.2 0.2,0.6 c 0.3,0.8 0.1,1.3 -0.2,1.9 -0.2,0.5 -0.5,1 -0.5,1.6 0,0.9 0.4,1.4 0.8,1.6 h -0.1 c -0.3,0.3 -0.4,0.6 -0.4,1 0,0.5 0.3,1 0.7,1.2 0.1,0.6 0.3,1.1 0.8,1.4 l 0.4,9 c -0.5,0.1 -0.9,0.6 -0.9,1.2 0,0.6 0.5,1.1 1.1,1.2 l 0.2,3.8 c 0,0.6 0.5,1.1 1.1,1.1 0.6,0 1.1,-0.5 1.1,-1.1 l 0.2,-3.8 c 0.3,0 0.5,-0.1 0.7,-0.3 0.2,-0.2 0.4,-0.5 0.4,-0.9 0,-0.6 -0.4,-1.1 -1,-1.2 l 0.4,-9 c 0.1,-0.1 0.3,-0.1 0.4,-0.2 0.3,-0.3 0.4,-0.7 0.4,-1.2 0.4,-0.2 0.7,-0.7 0.7,-1.2 -0.1,-0.4 -0.2,-0.8 -0.5,-1 m 12.4,3.2 C 31.3,40.9 31,41 30.7,41 h -5.2 c -0.7,0 -1.2,-0.5 -1.2,-1.2 0,-0.7 0.6,-1.2 1.2,-1.2 h 5.2 c 0.7,0 1.2,0.5 1.2,1.2 0,0.3 -0.1,0.6 -0.4,0.8 m -1.9,2.1 h -3.2 c -0.5,0 -1,-0.6 -1.1,-1.1 h 5.6 c -0.2,0.5 -0.7,1.1 -1.3,1.1 M 29.2,56 H 26.9 L 26.3,43.3 h 3.5 z m 1.4,1.6 c 0,0.6 -0.5,1 -1,1 h -3 c -0.6,0 -1,-0.5 -1,-1 0,-0.6 0.5,-1 1,-1 h 3 c 0.6,0 1,0.5 1,1 m -1.8,7 c 0,0.2 -0.1,0.4 -0.2,0.6 -0.1,0.1 -0.3,0.2 -0.5,0.2 -0.2,0 -0.4,-0.1 -0.5,-0.2 -0.1,-0.1 -0.2,-0.3 -0.2,-0.6 L 27,59.3 h 2 z M 23.7,36.1 c 0,-0.7 0.3,-1.3 0.6,-1.9 0.4,-0.8 0.8,-1.6 0.5,-2.7 0.5,0.2 1.3,0.6 1.9,1.2 l -0.2,0.2 c -0.1,0.1 -0.2,0.3 -0.3,0.4 0,0 -2.2,2.1 -0.5,4.7 h -0.3 c -0.2,0 -0.3,0 -0.5,0.1 0,-0.1 -1.2,-0.6 -1.2,-2 m 4.4,-4.5 c 0.2,-0.5 0.1,-1 0,-1.4 0.9,0.7 2.3,2.1 2.3,3.9 0,1.9 -1.2,3.4 -1.7,3.9 h -0.1 c -0.2,-0.4 -0.5,-1 -0.5,-1.6 0,-1.3 0.6,-2.1 0.6,-2.1 0,0 -0.8,0.5 -0.9,1.7 -0.1,0.6 0.1,1.2 0.4,2 h -0.8 c -0.3,-0.4 -1.1,-1.7 -0.3,-3 0.2,-0.3 1,-1.3 1.1,-1.5 0.1,-0.2 0.1,-0.5 0.1,-0.5 -0.1,0.2 -0.3,0.4 -0.3,0.4 -0.2,0.2 -0.9,0.9 -1.1,1.2 -1.2,1.5 -0.2,3.1 0,3.5 h -0.5 c -1.8,-2.3 0.1,-4.2 0.2,-4.3 0.1,-0.1 0.2,-0.3 0.3,-0.4 0.5,-0.6 0.9,-1 1.2,-1.8 m 3.8,0.3 c -0.4,1.8 0.2,3.4 0.3,3.4 0.5,1.7 -0.7,2.5 -1.1,2.7 h -1.6 c 0.6,-0.7 1.5,-2.1 1.5,-3.9 0,-0.5 -0.1,-0.9 -0.2,-1.3 0.4,-0.5 0.8,-0.8 1.1,-0.9 m -0.2,6.4 c 0.6,-0.5 1.5,-1.5 1,-3.2 0,0 -0.7,-1.7 -0.1,-3.6 l 0.1,-0.4 -0.5,0.1 c 0,0 -0.8,0.1 -1.8,1.1 -0.9,-1.9 -2.8,-3 -2.9,-3.1 l -1,-0.6 0.6,1 c 0,0 0.6,1.1 0.4,1.9 -0.1,0.3 -0.3,0.6 -0.4,0.8 -1,-1.1 -2.6,-1.5 -2.6,-1.5 l -0.6,-0.1 0.2,0.5 c 0.5,1.1 0.1,1.9 -0.3,2.8 -0.3,0.7 -0.6,1.3 -0.6,2.2 0,1.2 0.6,1.9 1.2,2.3 -0.4,0.3 -0.7,0.9 -0.7,1.4 0,0.7 0.4,1.3 1,1.6 0.1,0.7 0.5,1.4 1.1,1.7 l 0.6,12.9 c -0.8,0.1 -1.3,0.8 -1.3,1.6 0,0.8 0.7,1.5 1.5,1.6 l 0.2,5.4 c 0,0.4 0.1,0.7 0.4,1 0.3,0.3 0.6,0.4 1,0.4 0.4,0 0.7,-0.1 1,-0.4 0.3,-0.3 0.4,-0.6 0.4,-1 l 0.2,-5.4 c 0.9,0 1.5,-0.7 1.5,-1.6 0,-0.8 -0.6,-1.5 -1.4,-1.6 l 0.6,-13 c 0.6,-0.4 1,-1 1.1,-1.7 0.2,-0.1 0.3,-0.2 0.4,-0.3 0.3,-0.3 0.5,-0.8 0.5,-1.3 0,-0.6 -0.3,-1.2 -0.8,-1.5"
       id="path187"
       style="fill:#ffffff" />
  </g>
</svg>
