<svg
   width="145.87891pt"
   height="94.546875pt"
   viewBox="0 0 145.87891 94.546875"
   version="1.1"
   id="svg43"
   sodipodi:docname="viterbi-v.svg"
   xmlns:inkscape="http://www.inkscape.org/namespaces/inkscape"
   xmlns:sodipodi="http://sodipodi.sourceforge.net/DTD/sodipodi-0.dtd"
   xmlns="http://www.w3.org/2000/svg"
   xmlns:svg="http://www.w3.org/2000/svg">
  <defs
     id="defs11">
    <clipPath
       id="clip-0">
      <path
         clip-rule="nonzero"
         d="m 132,765 h 13.87891 v 26 H 132 Z m 0,0"
         id="path2" />
    </clipPath>
    <clipPath
       id="clip-1">
      <path
         clip-rule="nonzero"
         d="M 42,697.45312 H 69 V 742 H 42 Z m 0,0"
         id="path5" />
    </clipPath>
    <clipPath
       id="clip-2">
      <path
         clip-rule="nonzero"
         d="m 70,697.45312 h 40 V 742 H 70 Z m 0,0"
         id="path8" />
    </clipPath>
  </defs>
  <path
     fill-rule="nonzero"
     fill="#ffffff"
     fill-opacity="1"
     d="m 1.476562,52.031245 c 0,-0.29687 0.054688,-0.41406 0.410157,-0.41406 0.585937,0 2.527343,0.17969 7.109375,0.17578 4.929687,0 7.574218,-0.17578 8.097656,-0.17578 0.527344,0 0.589844,0.17578 0.589844,0.41406 v 1.34766 c 0,0.29297 -0.0625,0.52734 -0.46875,0.52734 h -2.820313 c -1.640625,0 -2.464843,0.53125 -2.464843,1.52735 0,0.46875 0.05859,1.17578 0.234374,2 0.355469,2.11328 2.527344,9.09765 3.585938,12.39062 0.699219,2.23047 4.113281,12.32813 5.460938,15.91016 h 0.117187 c 1.230469,-2.75781 5.816406,-14.85547 6.285156,-16.20703 0.585938,-1.58203 2.8125,-8.33985 3.695313,-10.92188 0.472656,-1.46484 0.828125,-2.52734 0.828125,-3.34765 -0.0039,-0.70703 -0.417969,-1.35157 -1.878907,-1.35157 h -1.535156 c -0.234375,0 -0.292968,-0.17578 -0.292968,-0.52734 v -1.35156 c 0,-0.29297 0.05859,-0.41406 0.355468,-0.41406 0.53125,0 3.226563,0.17968 6.929688,0.17968 4.285156,0 5.753906,-0.17968 6.28125,-0.17968 0.355468,0 0.410156,0.11718 0.410156,0.41406 v 1.46875 c 0,0.23047 -0.05469,0.41015 -0.410156,0.41015 h -1.582032 c -1.941406,0 -3.054687,0.9375 -4.167968,2.29297 -1.527344,1.87891 -6.226563,13.91407 -7.222656,16.38282 -0.707032,1.9375 -8.28125,20.60937 -8.578126,21.19921 -0.230468,0.46875 -0.527343,0.76563 -0.820312,0.76563 -0.46875,0 -0.703125,-0.58984 -1,-1.35156 -1.875,-5.40235 -6.636719,-18.78907 -7.398438,-20.90625 l -0.585937,-1.9961 C 9.230469,66.124995 6.46875,57.609375 5.707031,55.843745 5.113281,54.492185 4.527344,53.910155 3.292969,53.910155 H 1.769531 c -0.238281,0 -0.292969,-0.17969 -0.292969,-0.41406 v -1.46485"
     id="path13" />
  <path
     fill-rule="nonzero"
     fill="#ffffff"
     fill-opacity="1"
     d="m 38.3125,76.281245 c 0,-1.99609 -0.351562,-3.05078 -3.285156,-3.52343 -0.417969,-0.0586 -0.53125,-0.17969 -0.53125,-0.41407 v -0.52343 c 0,-0.17969 0.113281,-0.29297 0.410156,-0.41797 1.878906,-0.70313 4.113281,-1.64063 6.34375,-2.8711 0.46875,-0.23437 0.765625,-0.35156 1.113281,-0.35156 0.292969,0 0.355469,0.29297 0.292969,0.70313 -0.117188,0.99609 -0.117188,4.69531 -0.113281,9.57031 v 6.40234 c 0,2.28907 0,4.40235 0.05469,5.05078 0.121094,1.10938 0.296875,1.52735 0.941406,1.52735 h 2.699219 c 0.472657,0 0.589844,0.17578 0.589844,0.52734 v 0.9961 c 0,0.41015 -0.117187,0.58984 -0.527344,0.58984 -0.464843,0 -3.171875,-0.17969 -5.636719,-0.17969 -3.410156,0.004 -5.695312,0.17969 -6.34375,0.17969 -0.292968,0 -0.46875,-0.12109 -0.46875,-0.46875 v -1.17578 c 0,-0.35547 0.175782,-0.46875 0.585938,-0.46875 h 2.878906 c 0.644532,0 0.882813,-0.23828 0.941406,-1.17578 0.05859,-1.76172 0.05859,-3.58203 0.05859,-5.34375 l -0.0039,-8.63282"
     id="path15" />
  <path
     fill-rule="nonzero"
     fill="#ffffff"
     fill-opacity="1"
     d="m 37,62.554685 c 0,-1.47265 1.238281,-3.05469 3.585938,-3.05469 2.054687,0 3.054687,1.58204 3.054687,2.87891 0,1.52344 -1.058594,3.22656 -3.40625,3.22656 C 38.941406,65.605465 37,64.433595 37,62.554685"
     id="path17" />
  <g
     clip-path="url(#clip-0)"
     id="g21"
     transform="translate(0,-697.45312)">
    <path
       fill-rule="nonzero"
       fill="#ffffff"
       fill-opacity="1"
       d="m 137.35937,773.73437 c 0,-1.99609 -0.35156,-3.05078 -3.28906,-3.52343 -0.41015,-0.0586 -0.52734,-0.17969 -0.52734,-0.41407 v -0.52343 c 0,-0.17969 0.11719,-0.29297 0.41797,-0.41797 1.875,-0.70313 4.10156,-1.64063 6.33593,-2.8711 0.46875,-0.23437 0.76563,-0.35156 1.11719,-0.35156 0.29297,0 0.35547,0.29297 0.29297,0.70313 -0.11719,0.99609 -0.11719,4.69531 -0.11328,9.57031 v 6.40234 c 0,2.28907 0,4.40235 0.0547,5.05078 0.12109,1.10938 0.29297,1.52735 0.9414,1.52735 h 2.70313 c 0.46875,0 0.58594,0.17578 0.58594,0.52734 v 0.9961 c 0,0.41015 -0.11719,0.58984 -0.52735,0.58984 -0.46875,0 -3.17578,-0.17969 -5.63672,-0.17969 -3.41015,0.004 -5.69922,0.17969 -6.34765,0.17969 -0.29297,0 -0.46875,-0.12109 -0.46875,-0.46875 v -1.17578 c 0,-0.35547 0.17578,-0.46875 0.59375,-0.46875 h 2.87109 c 0.64453,0 0.87891,-0.23828 0.94141,-1.17578 0.0586,-1.76172 0.0586,-3.58203 0.0586,-5.34375 l -0.004,-8.63282"
       id="path19" />
  </g>
  <path
     fill-rule="nonzero"
     fill="#ffffff"
     fill-opacity="1"
     d="m 136.05469,62.554685 c 0,-1.47265 1.23047,-3.05469 3.58203,-3.05469 2.05078,0 3.05469,1.58204 3.05469,2.87891 0,1.52344 -1.0586,3.22656 -3.40625,3.22656 -1.29297,0 -3.23047,-1.17187 -3.23047,-3.05078"
     id="path23" />
  <path
     fill-rule="nonzero"
     fill="#ffffff"
     fill-opacity="1"
     d="m 55.578125,86.027345 c 0,4.40625 1.992187,5.17187 3.054687,5.17187 1.351563,0 3.054688,-0.23437 3.871094,-0.76562 0.296875,-0.17578 0.53125,-0.11719 0.707032,0.11719 l 0.296874,0.52734 c 0.171876,0.23047 0.05859,0.46875 -0.125,0.64453 -0.582031,0.58984 -2.992187,2.35547 -6.515624,2.35547 -2.878907,0 -5.695313,-2.76563 -5.695313,-4.99219 0,-2.41406 0.179687,-7.58203 0.179687,-8.40234 v -1.29297 c 0,-1.05859 0.05469,-4.98828 0.117188,-7.45703 H 47.882812 C 47.351562,71.933595 47,71.699215 47,71.226565 c 0,-0.46875 0.351562,-0.64453 1.054688,-1.05469 1.414062,-0.82031 5.933593,-5.40234 6.699218,-7.39844 0.171875,-0.46875 0.46875,-0.58594 0.824219,-0.58594 0.46875,0 0.585937,0.41016 0.585937,0.87891 l -0.296874,5.81641 h 8.167968 c 0.347656,0 0.527344,0.29297 0.40625,0.52734 l -0.582031,2.05078 c -0.06641,0.30078 -0.179687,0.46875 -0.53125,0.46875 l -7.574219,0.004 c -0.121094,2.70312 -0.175781,5.51953 -0.175781,8.22265 v 5.8711"
     id="path25" />
  <path
     fill-rule="nonzero"
     fill="#ffffff"
     fill-opacity="1"
     d="m 69.960938,77.749995 c -0.117188,0.52344 -0.175782,1.46485 -0.175782,2.81641 0,5.75391 3.644532,10.09766 8.34375,10.09766 3.578125,0 6.101563,-2.05469 7.101563,-3.99219 0.117187,-0.23438 0.351562,-0.35156 0.53125,-0.29297 l 0.757812,0.41016 c 0.183594,0.0586 0.296875,0.23828 0,0.88281 -1.054687,2.35156 -4.109375,6.40234 -9.335937,6.40234 -3.347656,0 -7.042969,-0.99609 -9.21875,-4.17187 -2.054688,-2.99219 -2.582032,-5.16797 -2.582032,-9.27735 0,-2.29296 0.585938,-6.22265 3.695313,-9.33984 2.523437,-2.57812 5.460937,-3.10937 8.398437,-3.10937 6.753907,-0.004 8.632813,6.33984 8.632813,8.63281 0,0.82031 -0.703125,0.9375 -1.644531,0.9375 z m 9.335937,-1.76562 c 1.117187,0 1.585937,-0.29297 1.585937,-0.82031 0,-1.35157 -0.703124,-5.22657 -4.523437,-5.22657 -2.582031,0 -5.042969,1.70313 -6.164063,6.05079 l 9.101563,-0.004"
     id="path27" />
  <path
     fill-rule="nonzero"
     fill="#ffffff"
     fill-opacity="1"
     d="m 92.742188,77.746095 c 0,-2.9961 -0.46875,-3.58203 -2.109376,-4.46485 l -1.121093,-0.58203 c -0.347657,-0.12109 -0.46875,-0.17968 -0.46875,-0.41797 v -0.35156 c 0,-0.23437 0.121093,-0.34765 0.46875,-0.52734 l 5.816406,-2.99219 c 0.351563,-0.17969 0.585937,-0.23828 0.820313,-0.23828 0.355468,0 0.410156,0.35156 0.410156,0.70703 l 0.292968,4.05469 h 0.238282 c 1.757812,-2.70313 4.519536,-5.11328 7.046876,-5.11328 1.99609,0 2.99219,1.23047 2.99219,2.58593 0,1.69922 -1.41016,2.875 -2.46875,2.875 -0.64063,0 -1.22657,-0.23437 -1.69922,-0.46875 -0.46875,-0.29296 -1.17578,-0.46875 -1.9375,-0.46875 -0.94141,0 -2.464846,0.58985 -3.464846,2.46875 -0.351563,0.64063 -0.589844,1.70313 -0.585938,1.87891 v 12.33203 c 0,1.81641 0.414063,2.40625 1.644532,2.40625 h 2.761722 c 0.35156,0 0.41015,0.17578 0.41015,0.52735 v 1.05859 c 0,0.35156 -0.0586,0.53125 -0.29297,0.53125 -0.35156,0 -3.054684,-0.17969 -6.226559,-0.17969 -3.636719,0 -6.105469,0.17969 -6.460937,0.17969 -0.234375,0 -0.347656,-0.12109 -0.347656,-0.59375 v -0.99609 c 0,-0.41016 0.113281,-0.52735 0.644531,-0.52735 h 2.285156 c 0.882813,0 1.296875,-0.35156 1.296875,-1.11328 0.05469,-1.94141 0.05469,-3.99609 0.05469,-7.05078 v -5.51953"
     id="path29" />
  <path
     fill-rule="nonzero"
     fill="#ffffff"
     fill-opacity="1"
     d="m 109.53516,61.710935 c 0,-3.93359 -0.64453,-4.75781 -2.76172,-5.46094 l -0.58594,-0.17578 c -0.64453,-0.17578 -0.75781,-0.29297 -0.75781,-0.46875 v -0.46875 c 0,-0.17968 0.11328,-0.29297 0.46484,-0.46875 1.70313,-0.76562 4.75781,-2.29297 6.22656,-3.23047 0.41016,-0.29687 0.87891,-0.53125 1.23047,-0.53125 0.41016,0 0.52735,0.29688 0.46875,1 -0.0586,0.46875 -0.0547,7.16407 -0.0547,12.39063 v 6.8125 c 1.8789,-1.82031 5.22265,-2.9375 8.10156,-2.9375 5.16797,0 10.75,4.16797 10.75,12.56641 0,6.87109 -5.51953,13.32812 -12.21875,13.32812 -3.28516,0 -5.57813,-0.69922 -6.92578,-1.52344 l -2.35157,1.29297 c -0.23046,0.17969 -0.41015,0.23438 -0.76562,0.17969 l -0.70313,-0.17969 c -0.23046,-0.0547 -0.29687,-0.17578 -0.23046,-0.46875 0.11718,-0.82422 0.11718,-5.69531 0.11718,-9.98047 z m 4.23047,19.02735 c 0,4.8789 0.17968,6.63671 0.88281,8.51562 0.58594,1.41016 3.05469,2.9375 5.57812,2.9375 3.52344,0 7.8711,-2.40625 7.8711,-10.10156 0,-5.69531 -3,-11.09766 -8.75,-11.09766 -2.17969,0 -4.29297,0.76172 -5.58203,2.11328 v 7.63282"
     id="path31" />
  <path
     fill-rule="nonzero"
     fill="#fbbf15"
     fill-opacity="1"
     d="m 5.234375,6.066405 c 0,-2.02344 -0.476563,-2.97266 -2.023437,-2.97266 H 0.476562 C 0.117188,3.093745 0,2.972655 0,2.554685 v -1.36719 c 0,-0.35546 0.117188,-0.47265 0.589844,-0.47265 0.597656,0 3.449218,0.17578 9.160156,0.17578 4.988281,0 7.847656,-0.17578 8.558594,-0.17578 0.355468,0 0.476562,0.11719 0.476562,0.41406 v 1.48828 c 0,0.35547 -0.121094,0.47656 -0.476562,0.47656 H 15.8125 c -1.785156,0 -2.851562,1.0625 -2.914062,2.3125 -0.05859,0.71485 -0.175782,4.28516 -0.175782,7.73047 v 7.375 c 0,2.96875 0.05469,7.19141 0.175782,9.08985 0.179687,2.73437 0.652343,5.46875 2.078124,7.37109 2.023438,2.73047 5.230469,3.68359 8.085938,3.68359 2.738281,0 6.066406,-1.0664 7.964844,-2.85156 2.261718,-2.25781 3.449218,-5.70703 3.449218,-10.04687 v -10.69922 c 0,-4.75 -0.472656,-9.98438 -0.652343,-11.35547 -0.179688,-1.54688 -1.132813,-2.60938 -2.4375,-2.60938 h -2.140625 c -0.355469,0 -0.476563,-0.18359 -0.476563,-0.42187 v -1.48438 c 0,-0.35546 0.121094,-0.47265 0.476563,-0.47265 0.597656,0 3.328125,0.17578 7.253906,0.17578 3.683594,0 5.585938,-0.17578 6.058594,-0.17578 0.535156,0 0.597656,0.17578 0.597656,0.47265 v 1.36719 c 0,0.35547 -0.0625,0.53906 -0.359375,0.53906 h -2.136719 c -2.136718,0 -2.378906,1.66016 -2.5,2.3125 -0.113281,0.71485 -0.113281,9.03907 -0.113281,9.8125 0,0.83204 -0.121094,11.17188 -0.359375,13.55079 -0.355469,4.875 -1.785156,8.5625 -4.996094,11.41406 -2.496094,2.25781 -6.292968,3.6875 -10.816406,3.6875 -2.855469,0 -6.300781,-0.47656 -8.558594,-1.42969 C 9.867188,41.015625 7.492188,38.281245 6.300781,34.472655 5.46875,31.863285 5.234375,27.937495 5.234375,20.148435 V 6.066405"
     id="path33" />
  <g
     clip-path="url(#clip-1)"
     id="g37"
     transform="translate(0,-697.45312)">
    <path
       fill-rule="nonzero"
       fill="#fbbf15"
       fill-opacity="1"
       d="m 44.824219,727.17187 c 0.234375,0 0.351562,0.1211 0.351562,0.47657 0.121094,1.90234 0.597657,4.16406 2.261719,6.77734 1.78125,2.85547 4.875,4.27734 7.847656,4.27734 3.210938,0 7.730469,-2.01953 7.730469,-6.95312 0,-5.46875 -2.5,-7.25 -8.800781,-9.62891 -1.902344,-0.71484 -5.824219,-2.3789 -8.679688,-4.99218 -2.019531,-1.90235 -2.96875,-4.875 -2.96875,-8.5 0,-3.33204 1.304688,-6.0625 4.15625,-8.32422 2.382813,-2.01953 4.996094,-2.85157 8.441406,-2.85157 3.925782,0 6.300782,0.95313 7.492188,1.42579 0.597656,0.23828 0.949219,0.12109 1.246094,-0.17579 l 0.773437,-0.77734 c 0.238281,-0.23437 0.476563,-0.35156 0.832031,-0.35156 0.359376,0 0.476563,0.35156 0.476563,0.95312 0,0.94532 0.949219,9.26953 0.949219,9.86328 0,0.23829 -0.117188,0.35547 -0.355469,0.41797 L 65.625,709.10156 c -0.234375,0.0586 -0.472656,0 -0.589844,-0.35547 -0.59375,-1.66406 -1.546875,-4.03906 -3.6875,-6.30078 -1.546875,-1.66406 -3.449218,-2.49609 -6.183594,-2.49609 -4.753906,0 -6.65625,3.80469 -6.65625,6.00781 0,2.01953 0.238282,3.80078 1.664063,5.34375 1.546875,1.54688 4.875,2.97656 7.25,3.6875 3.449219,1.06641 6.304687,2.25781 8.5625,4.64063 1.902344,2.01953 2.972656,4.51171 2.972656,8.49609 0,7.25 -4.753906,13.19531 -12.601562,13.19531 -4.875,0 -7.726563,-1.0664 -10.105469,-2.85547 -0.714844,-0.47265 -1.074219,-0.71093 -1.425781,-0.71093 -0.359375,0 -0.597657,0.47656 -0.953125,1.07031 -0.355469,0.59375 -0.59375,0.71484 -1.070313,0.71484 -0.472656,0 -0.710937,-0.35937 -0.710937,-0.95312 0.117187,-0.71094 0.949218,-10.34375 1.066406,-11.05469 0.05859,-0.35938 0.121094,-0.47656 0.359375,-0.47656 l 1.308594,0.11718"
       id="path35" />
  </g>
  <g
     clip-path="url(#clip-2)"
     id="g41"
     transform="translate(0,-697.45312)">
    <path
       fill-rule="nonzero"
       fill="#fbbf15"
       fill-opacity="1"
       d="m 109.61719,730.74219 c 0.17969,0.17578 0.23828,0.35547 0.11719,0.58984 -3.56641,5.11719 -9.27344,9.98828 -17.710942,9.98828 -7.609376,0 -11.890626,-2.25781 -15.574219,-5.58594 -4.402344,-3.92578 -6.421875,-10.82031 -6.421875,-16.05078 0,-5.82422 1.902344,-11.41406 6.0625,-15.92968 3.210937,-3.44922 8.324218,-6.30079 15.453125,-6.30079 5.472656,0 9.871091,1.66407 12.011721,2.85157 0.83203,0.47656 1.07031,0.47656 1.1875,0 l 0.47656,-1.54297 c 0.11719,-0.35547 0.23438,-0.35547 0.94922,-0.35547 0.71484,0 0.83203,0.11719 0.83203,0.94922 0,1.07031 1.19141,10.57812 1.42969,12.36328 0.0547,0.35937 0,0.53516 -0.23828,0.59375 l -1.12891,0.35547 c -0.30078,0.12109 -0.47656,-0.11719 -0.65625,-0.58985 -0.71484,-2.14453 -2.14062,-5.11328 -4.63672,-7.73046 -2.61328,-2.4961 -5.70703,-4.39844 -10.339842,-4.39844 -9.511719,0 -13.4375,8.5625 -13.4375,17.12109 0,3.6875 1.070312,10.69922 5.472656,15.45313 3.921875,4.16015 7.367187,4.63672 10.222656,4.63672 6.53906,0 11.70703,-3.26954 14.20703,-6.89454 0.29688,-0.41796 0.53516,-0.59375 0.71094,-0.41796 l 1.01172,0.89453"
       id="path39" />
  </g>
</svg>
