<svg
   height="32px"
   viewBox="0 0 257.82422 43.988281"
   version="1.1"
   id="svg53"
   sodipodi:docname="viterbi.svg"
   xmlns:sodipodi="http://sodipodi.sourceforge.net/DTD/sodipodi-0.dtd"
   xmlns="http://www.w3.org/2000/svg"
   xmlns:svg="http://www.w3.org/2000/svg">
  <sodipodi:namedview
     id="namedview55"
     pagecolor="#ffffff"
     bordercolor="#666666"
     borderopacity="1.0"
     showgrid="false" />
  <defs
     id="defs17">
    <clipPath
       id="clip-0">
      <path
         clip-rule="nonzero"
         d="m 244,765 h 13.82422 v 26 H 244 Z m 0,0"
         id="path2" />
    </clipPath>
    <clipPath
       id="clip-1">
      <path
         clip-rule="nonzero"
         d="m 217,748.01172 h 28 V 792 h -28 z m 0,0"
         id="path5" />
    </clipPath>
    <clipPath
       id="clip-2">
      <path
         clip-rule="nonzero"
         d="M 0,748.01172 H 44 V 792 H 0 Z m 0,0"
         id="path8" />
    </clipPath>
    <clipPath
       id="clip-3">
      <path
         clip-rule="nonzero"
         d="M 42,748.01172 H 69 V 792 H 42 Z m 0,0"
         id="path11" />
    </clipPath>
    <clipPath
       id="clip-4">
      <path
         clip-rule="nonzero"
         d="m 70,748.01172 h 40 V 792 H 70 Z m 0,0"
         id="path14" />
    </clipPath>
  </defs>
  <path
     fill-rule="nonzero"
     fill="#ffffff"
     fill-opacity="1"
     d="m 113.42188,1.472651 c 0,-0.29687 0.0586,-0.41406 0.41406,-0.41406 0.58203,0 2.51953,0.17969 7.10547,0.17578 4.92968,0 7.57421,-0.17578 8.09765,-0.17578 0.52735,0 0.58985,0.17578 0.58985,0.41406 v 1.34766 c 0,0.29297 -0.0625,0.52734 -0.46875,0.52734 h -2.82032 c -1.64062,0 -2.46484,0.53125 -2.46484,1.52735 0,0.46875 0.0586,1.17578 0.23438,2 0.35546,2.11328 2.52734,9.09765 3.58593,12.39062 0.69922,2.23047 4.11328,12.33203 5.46094,15.91407 h 0.11719 c 1.23047,-2.75782 5.8164,-14.85938 6.28515,-16.21094 0.58594,-1.58203 2.8125,-8.33985 3.69532,-10.92188 0.47265,-1.46484 0.82421,-2.52734 0.82421,-3.34765 -0.004,-0.70703 -0.41406,-1.35157 -1.8789,-1.35157 h -1.52735 c -0.23437,0 -0.29687,-0.17578 -0.29687,-0.52734 v -1.35156 c 0,-0.29297 0.0625,-0.41406 0.35547,-0.41406 0.53125,0 3.22656,0.17968 6.92969,0.17968 4.28515,0 5.7539,-0.17968 6.28125,-0.17968 0.35546,0 0.41406,0.11718 0.41406,0.41406 v 1.46875 c 0,0.23047 -0.0586,0.41015 -0.41406,0.41015 h -1.58204 c -1.9414,0 -3.05468,0.9375 -4.16796,2.29297 -1.52735,1.87891 -6.22657,13.91407 -7.22266,16.38282 -0.70703,1.9375 -8.28125,20.60937 -8.57813,21.19921 -0.23046,0.46875 -0.52734,0.76563 -0.82031,0.76563 -0.46875,0 -0.70312,-0.58984 -1,-1.35156 -1.875,-5.40235 -6.63672,-18.78907 -7.39843,-20.90625 l -0.58594,-1.9961 c -1.41016,-4.16797 -4.17188,-12.68359 -4.9336,-14.44922 -0.58984,-1.35156 -1.17968,-1.93359 -2.41406,-1.93359 h -1.52344 c -0.23437,0 -0.29296,-0.17969 -0.29296,-0.41406 v -1.46485"
     id="path19" />
  <path
     fill-rule="nonzero"
     fill="#ffffff"
     fill-opacity="1"
     d="m 150.25781,25.722651 c 0,-1.99609 -0.35156,-3.05078 -3.28515,-3.52343 -0.41797,-0.0586 -0.53125,-0.17969 -0.53125,-0.41407 v -0.52343 c 0,-0.17969 0.11328,-0.29297 0.41015,-0.41797 1.87891,-0.70313 4.11328,-1.64063 6.34375,-2.8711 0.46875,-0.23437 0.76563,-0.35156 1.11328,-0.35156 0.29297,0 0.35547,0.29297 0.29297,0.70313 -0.11719,0.99609 -0.11719,4.69531 -0.11328,9.57422 v 6.39843 c 0,2.28907 0,4.40625 0.0547,5.05078 0.12109,1.10938 0.29687,1.52735 0.9414,1.52735 h 2.70313 c 0.46484,0 0.58594,0.17578 0.58594,0.52734 v 0.9961 c 0,0.41015 -0.1211,0.58984 -0.52735,0.58984 -0.46484,0 -3.17187,-0.17969 -5.63672,-0.17969 -3.41015,0.004 -5.69921,0.17969 -6.34375,0.17969 -0.29296,0 -0.46875,-0.12109 -0.46875,-0.46875 v -1.17578 c 0,-0.35547 0.17579,-0.46875 0.58594,-0.46875 h 2.87891 c 0.64453,0 0.88281,-0.23828 0.9414,-1.17578 0.0586,-1.75782 0.0586,-3.58203 0.0586,-5.34375 l -0.004,-8.63282"
     id="path21" />
  <path
     fill-rule="nonzero"
     fill="#ffffff"
     fill-opacity="1"
     d="m 148.94531,11.996091 c 0,-1.47265 1.23828,-3.05469 3.58594,-3.05469 2.05469,0 3.05469,1.58204 3.05469,2.87891 0,1.52344 -1.0586,3.22656 -3.40625,3.22656 -1.29297,0 -3.23438,-1.17187 -3.23438,-3.05078"
     id="path23" />
  <g
     clip-path="url(#clip-0)"
     id="g27"
     transform="translate(0,-748.01172)">
    <path
       fill-rule="nonzero"
       fill="#ffffff"
       fill-opacity="1"
       d="m 249.30859,773.73437 c 0,-1.99609 -0.35547,-3.05078 -3.29297,-3.52343 -0.41015,-0.0586 -0.52734,-0.17969 -0.52734,-0.41407 v -0.52343 c 0,-0.17969 0.11719,-0.29297 0.41797,-0.41797 1.875,-0.70313 4.10547,-1.64063 6.33594,-2.8711 0.46875,-0.23437 0.76562,-0.35156 1.11718,-0.35156 0.29297,0 0.35547,0.29297 0.29297,0.70313 -0.11718,0.99609 -0.11718,4.69531 -0.11328,9.57422 v 6.39843 c 0,2.28907 0,4.40625 0.0547,5.05078 0.12109,1.10938 0.29297,1.52735 0.94141,1.52735 h 2.70312 c 0.46875,0 0.58594,0.17578 0.58594,0.52734 v 0.9961 c 0,0.41015 -0.11719,0.58984 -0.52735,0.58984 -0.46875,0 -3.17578,-0.17969 -5.64062,-0.17969 C 248.25,790.82422 245.96094,791 245.3125,791 c -0.29297,0 -0.46875,-0.12109 -0.46875,-0.46875 v -1.17578 c 0,-0.35547 0.17578,-0.46875 0.59375,-0.46875 h 2.875 c 0.64062,0 0.875,-0.23828 0.9375,-1.17578 0.0586,-1.75782 0.0586,-3.58203 0.0586,-5.34375 v -8.63282"
       id="path25" />
  </g>
  <path
     fill-rule="nonzero"
     fill="#ffffff"
     fill-opacity="1"
     d="m 247.99609,11.996091 c 0,-1.47265 1.23438,-3.05469 3.58203,-3.05469 2.05469,0 3.0586,1.58204 3.0586,2.87891 0,1.52344 -1.0586,3.22656 -3.40625,3.22656 -1.29297,0 -3.23438,-1.17187 -3.23438,-3.05078"
     id="path29" />
  <path
     fill-rule="nonzero"
     fill="#ffffff"
     fill-opacity="1"
     d="m 167.52344,35.472651 c 0,4.40235 1.99218,5.16797 3.05468,5.16797 1.35157,0 3.05469,-0.23437 3.8711,-0.76562 0.29687,-0.17578 0.53125,-0.11719 0.70703,0.11719 l 0.29687,0.52734 c 0.17188,0.23047 0.0586,0.46875 -0.125,0.64453 -0.58203,0.58984 -2.99218,2.35547 -6.51562,2.35547 -2.87891,0 -5.69531,-2.76563 -5.69531,-4.99219 0,-2.41015 0.17968,-7.58203 0.17968,-8.40234 v -1.28906 c 0,-1.0586 0.0547,-4.99219 0.11329,-7.46094 h -3.58204 c -0.52734,0 -0.88281,-0.23438 -0.88281,-0.70703 0,-0.46875 0.35547,-0.64453 1.0586,-1.05469 1.41015,-0.82031 5.92968,-5.40234 6.69531,-7.39844 0.17187,-0.46875 0.46875,-0.58594 0.82422,-0.58594 0.46875,0 0.58593,0.41016 0.58593,0.87891 l -0.29687,5.81641 h 8.16797 c 0.34765,0 0.52734,0.29297 0.40625,0.52734 l -0.58203,2.05078 c -0.0664,0.30078 -0.17969,0.46875 -0.53125,0.46875 l -7.57422,0.004 c -0.1211,2.70312 -0.17578,5.51953 -0.17578,8.22265 v 5.875"
     id="path31" />
  <path
     fill-rule="nonzero"
     fill="#ffffff"
     fill-opacity="1"
     d="m 181.90625,27.191401 c -0.11719,0.52344 -0.17578,1.46875 -0.17578,2.81641 0,5.75781 3.64453,10.09766 8.33984,10.09766 3.58203,0 6.10547,-2.05469 7.10547,-3.99219 0.11719,-0.23438 0.35156,-0.35156 0.53125,-0.29297 l 0.75781,0.41406 c 0.1836,0.0547 0.29688,0.23438 0,0.87891 -1.05468,2.35156 -4.10937,6.40234 -9.33203,6.40234 -3.35156,0 -7.04687,-0.99609 -9.22656,-4.17187 -2.05078,-2.99219 -2.57813,-5.16406 -2.57813,-9.27735 0,-2.28906 0.58594,-6.22265 3.69532,-9.33984 2.52343,-2.57812 5.46093,-3.10937 8.39843,-3.10937 6.75391,-0.004 8.63282,6.33984 8.63282,8.63281 0,0.82031 -0.70313,0.9375 -1.64453,0.9375 z m 9.33594,-1.76562 c 1.11718,0 1.58203,-0.29297 1.58203,-0.82031 0,-1.35157 -0.69922,-5.22657 -4.51563,-5.22657 -2.58593,0 -5.04687,1.70313 -6.16797,6.05079 l 9.10157,-0.004"
     id="path33" />
  <path
     fill-rule="nonzero"
     fill="#ffffff"
     fill-opacity="1"
     d="m 204.6875,27.187501 c 0,-2.9961 -0.46875,-3.58203 -2.11328,-4.46485 l -1.11719,-0.58203 c -0.34766,-0.12109 -0.46875,-0.17968 -0.46875,-0.41797 v -0.35156 c 0,-0.23437 0.12109,-0.34765 0.46875,-0.52734 l 5.81641,-2.99219 c 0.35156,-0.17969 0.58593,-0.23828 0.82031,-0.23828 0.35156,0 0.41016,0.35156 0.41016,0.70703 l 0.29296,4.05469 h 0.23829 c 1.75781,-2.70313 4.52343,-5.11328 7.04687,-5.11328 1.99609,0 2.99219,1.23047 2.99219,2.58593 0,1.69922 -1.41016,2.875 -2.46875,2.875 -0.63672,0 -1.22656,-0.23437 -1.69922,-0.46875 -0.46875,-0.29296 -1.17578,-0.46875 -1.9375,-0.46875 -0.94141,0 -2.46484,0.58985 -3.46484,2.46875 -0.35157,0.64063 -0.58985,1.70313 -0.58594,1.87891 v 12.33203 c 0,1.81641 0.41406,2.40625 1.64453,2.40625 h 2.76172 c 0.35156,0 0.41015,0.17578 0.41015,0.52735 v 1.05859 c 0,0.35156 -0.0586,0.53125 -0.29296,0.53125 -0.35157,0 -3.05469,-0.17969 -6.22657,-0.17969 -3.64062,0 -6.10547,0.17969 -6.46093,0.17969 -0.23438,0 -0.34766,-0.12109 -0.34766,-0.59375 v -0.99609 c 0,-0.41016 0.11328,-0.52735 0.64453,-0.52735 h 2.28516 c 0.88281,0 1.29687,-0.35156 1.29687,-1.11328 0.0547,-1.94141 0.0547,-3.99609 0.0547,-7.05078 v -5.51953"
     id="path35" />
  <g
     clip-path="url(#clip-1)"
     id="g39"
     transform="translate(0,-748.01172)">
    <path
       fill-rule="nonzero"
       fill="#ffffff"
       fill-opacity="1"
       d="m 221.48047,759.16406 c 0,-3.93359 -0.64453,-4.75781 -2.76172,-5.46094 l -0.58594,-0.17578 c -0.64453,-0.17578 -0.76172,-0.29297 -0.76172,-0.46875 v -0.46875 c 0,-0.17968 0.11719,-0.29297 0.47266,-0.46875 1.69922,-0.76562 4.75391,-2.29297 6.22266,-3.23047 0.41015,-0.29687 0.8789,-0.53125 1.23046,-0.53125 0.41016,0 0.52735,0.29688 0.47266,1 -0.0625,0.46875 -0.0586,7.16407 -0.0586,12.39063 v 6.8125 c 1.8789,-1.82031 5.22656,-2.9375 8.10156,-2.9375 5.16797,0 10.75,4.16797 10.75,12.56641 0,6.87109 -5.51953,13.32812 -12.21875,13.32812 -3.28125,0 -5.57813,-0.69922 -6.92578,-1.52344 l -2.35156,1.29297 c -0.23047,0.17969 -0.41016,0.23438 -0.76563,0.17969 l -0.70312,-0.17969 c -0.23047,-0.0547 -0.29297,-0.17578 -0.23047,-0.46875 0.11718,-0.82422 0.11718,-5.69531 0.11718,-9.98047 z m 4.23047,19.02735 c 0,4.8789 0.17968,6.63671 0.88281,8.51562 0.58594,1.41016 3.05469,2.9375 5.57812,2.9375 3.52344,0 7.86719,-2.40625 7.86719,-10.10156 0,-5.69531 -2.99609,-11.09766 -8.74609,-11.09766 -2.17969,0 -4.29297,0.76172 -5.58203,2.11328 v 7.63282"
       id="path37" />
  </g>
  <g
     clip-path="url(#clip-2)"
     id="g43"
     transform="translate(0,-748.01172)">
    <path
       fill-rule="nonzero"
       fill="#fbbf15"
       fill-opacity="1"
       d="m 5.234375,754.07812 c 0,-2.02343 -0.476563,-2.97265 -2.023437,-2.97265 H 0.476562 C 0.117188,751.10547 0,750.98437 0,750.57031 v -1.37109 c 0,-0.35547 0.117188,-0.47266 0.589844,-0.47266 0.597656,0 3.449218,0.17969 9.160156,0.17969 4.988281,0 7.847656,-0.17969 8.558594,-0.17969 0.355468,0 0.476562,0.11719 0.476562,0.41406 v 1.48829 c 0,0.35546 -0.121094,0.47656 -0.476562,0.47656 H 15.8125 c -1.785156,0 -2.851562,1.0664 -2.914062,2.3164 -0.05859,0.71094 -0.175782,4.28125 -0.175782,7.73047 v 7.3711 c 0,2.96875 0.05469,7.1914 0.175782,9.09375 0.179687,2.73437 0.652343,5.46875 2.078124,7.36718 2.023438,2.73438 5.230469,3.6836 8.085938,3.6836 2.738281,0 6.066406,-1.0625 7.964844,-2.84766 2.261718,-2.25781 3.449218,-5.70703 3.449218,-10.05078 v -10.69922 c 0,-4.75 -0.472656,-9.98437 -0.652343,-11.35156 -0.179688,-1.54688 -1.132813,-2.61328 -2.4375,-2.61328 h -2.140625 c -0.355469,0 -0.476563,-0.17969 -0.476563,-0.42188 v -1.48437 c 0,-0.35547 0.121094,-0.47266 0.476563,-0.47266 0.597656,0 3.328125,0.17969 7.253906,0.17969 3.683594,0 5.585938,-0.17969 6.058594,-0.17969 0.535156,0 0.597656,0.17969 0.597656,0.47266 v 1.37109 c 0,0.35547 -0.0625,0.53516 -0.359375,0.53516 h -2.136719 c -2.136718,0 -2.378906,1.66015 -2.5,2.3164 -0.113281,0.71094 -0.113281,9.03516 -0.113281,9.8086 0,0.83203 -0.121094,11.17578 -0.359375,13.55078 -0.355469,4.87891 -1.785156,8.5625 -4.996094,11.41406 -2.496094,2.25781 -6.292968,3.6875 -10.816406,3.6875 -2.855469,0 -6.300781,-0.47656 -8.558594,-1.42969 C 9.867188,789.02734 7.492188,786.29297 6.300781,782.48828 5.46875,779.875 5.234375,775.95312 5.234375,768.16406 v -14.08594"
       id="path41" />
  </g>
  <g
     clip-path="url(#clip-3)"
     id="g47"
     transform="translate(0,-748.01172)">
    <path
       fill-rule="nonzero"
       fill="#fbbf15"
       fill-opacity="1"
       d="m 44.824219,777.73437 c 0.234375,0 0.351562,0.1211 0.351562,0.47657 0.121094,1.90234 0.597657,4.16015 2.261719,6.77734 1.78125,2.85156 4.875,4.27344 7.847656,4.27344 3.210938,0 7.730469,-2.01563 7.730469,-6.95313 0,-5.46875 -2.5,-7.25 -8.800781,-9.625 -1.902344,-0.71484 -5.824219,-2.3789 -8.679688,-4.99218 -2.019531,-1.90625 -2.96875,-4.875 -2.96875,-8.50391 0,-3.32813 1.304688,-6.0625 4.15625,-8.32031 2.382813,-2.02344 4.996094,-2.85547 8.441406,-2.85547 3.925782,0 6.300782,0.95312 7.492188,1.42578 0.597656,0.23828 0.949219,0.12109 1.246094,-0.17578 l 0.773437,-0.77344 c 0.238281,-0.23828 0.476563,-0.35547 0.832031,-0.35547 0.359376,0 0.476563,0.35547 0.476563,0.95313 0,0.94922 0.949219,9.26953 0.949219,9.86328 0,0.23828 -0.117188,0.35547 -0.355469,0.41797 L 65.625,759.66016 c -0.234375,0.0625 -0.472656,0 -0.589844,-0.35547 -0.59375,-1.66407 -1.546875,-4.03907 -3.6875,-6.30078 -1.546875,-1.66016 -3.449218,-2.4961 -6.183594,-2.4961 -4.753906,0 -6.65625,3.80469 -6.65625,6.00781 0,2.01954 0.238282,3.80079 1.664063,5.34766 1.546875,1.54297 4.875,2.97266 7.25,3.6875 3.449219,1.06641 6.304687,2.25781 8.5625,4.63672 1.902344,2.01953 2.972656,4.51562 2.972656,8.49609 0,7.25391 -4.753906,13.19532 -12.601562,13.19532 -4.875,0 -7.726563,-1.06641 -10.105469,-2.85547 -0.714844,-0.47266 -1.074219,-0.71094 -1.425781,-0.71094 -0.359375,0 -0.597657,0.47656 -0.953125,1.07422 -0.355469,0.59375 -0.59375,0.71484 -1.070313,0.71484 -0.472656,0 -0.710937,-0.36328 -0.710937,-0.95703 0.117187,-0.71094 0.949218,-10.33984 1.066406,-11.05469 0.05859,-0.35547 0.121094,-0.47656 0.359375,-0.47656 l 1.308594,0.12109"
       id="path45" />
  </g>
  <g
     clip-path="url(#clip-4)"
     id="g51"
     transform="translate(0,-748.01172)">
    <path
       fill-rule="nonzero"
       fill="#fbbf15"
       fill-opacity="1"
       d="m 109.61719,781.30078 c 0.17969,0.17578 0.23828,0.35547 0.11719,0.59375 -3.56641,5.11328 -9.27344,9.98438 -17.710942,9.98438 -7.609376,0 -11.890626,-2.25782 -15.574219,-5.58594 -4.402344,-3.92578 -6.421875,-10.81641 -6.421875,-16.05078 0,-5.82422 1.902344,-11.41016 6.0625,-15.92969 3.210937,-3.44531 8.324218,-6.30078 15.453125,-6.30078 5.472656,0 9.871091,1.66406 12.011721,2.85547 0.83203,0.47656 1.07031,0.47656 1.1875,0 l 0.47656,-1.54688 c 0.11719,-0.35547 0.23438,-0.35547 0.94922,-0.35547 0.71484,0 0.83203,0.11719 0.83203,0.94922 0,1.07031 1.19141,10.58203 1.42969,12.36328 0.0547,0.35938 0,0.53516 -0.23828,0.59375 l -1.12891,0.35938 c -0.30078,0.11719 -0.47656,-0.11719 -0.65625,-0.59375 -0.71484,-2.14063 -2.14062,-5.11328 -4.63672,-7.72656 -2.61328,-2.5 -5.70703,-4.39844 -10.339842,-4.39844 -9.511719,0 -13.4375,8.55859 -13.4375,17.11719 0,3.6875 1.070312,10.69921 5.472656,15.45703 3.921875,4.16015 7.367187,4.63672 10.222656,4.63672 6.53906,0 11.70703,-3.27344 14.20703,-6.89454 0.29688,-0.41796 0.53516,-0.59765 0.71094,-0.41796 l 1.01172,0.89062"
       id="path49" />
  </g>
</svg>
