<?xml version="1.0" encoding="UTF-8" standalone="no"?>
<svg
   height="80.263992"
   viewBox="0 0 75.886033 154.29485"
   version="1.1"
   id="svg43"
   sodipodi:docname="viterbi-nlp-v.svg"
   inkscape:version="1.2.1 (9c6d41e410, 2022-07-14, custom)"
   width="75.886032"
   xmlns:inkscape="http://www.inkscape.org/namespaces/inkscape"
   xmlns:sodipodi="http://sodipodi.sourceforge.net/DTD/sodipodi-0.dtd"
   xmlns="http://www.w3.org/2000/svg"
   xmlns:svg="http://www.w3.org/2000/svg">
  <sodipodi:namedview
     id="namedview582"
     pagecolor="#000000"
     bordercolor="#666666"
     borderopacity="1.0"
     inkscape:showpageshadow="2"
     inkscape:pageopacity="0"
     inkscape:pagecheckerboard="0"
     inkscape:deskcolor="#d1d1d1"
     inkscape:document-units="pt"
     showgrid="false"
     inkscape:zoom="2.5953907"
     inkscape:cx="36.218054"
     inkscape:cy="116.74543"
     inkscape:window-width="1920"
     inkscape:window-height="1039"
     inkscape:window-x="0"
     inkscape:window-y="41"
     inkscape:window-maximized="1"
     inkscape:current-layer="svg43" />
  <defs
     id="defs11">
    <rect
       x="6.537539"
       y="136.18155"
       width="100.62456"
       height="50.673141"
       id="rect694" />
    <clipPath
       id="clip-0">
      <path
         clip-rule="nonzero"
         d="m 132,765 h 13.87891 v 26 H 132 Z m 0,0"
         id="path2" />
    </clipPath>
    <clipPath
       id="clip-1">
      <path
         clip-rule="nonzero"
         d="M 42,697.45312 H 69 V 742 H 42 Z m 0,0"
         id="path5" />
    </clipPath>
    <clipPath
       id="clip-2">
      <path
         clip-rule="nonzero"
         d="m 70,697.45312 h 40 V 742 H 70 Z m 0,0"
         id="path8" />
    </clipPath>
  </defs>
  <path
     fill-rule="nonzero"
     fill="#ffffff"
     fill-opacity="1"
     d="m -33.51988,52.031245 c 0,-0.29687 0.05469,-0.41406 0.410157,-0.41406 0.585937,0 2.527343,0.17969 7.109375,0.17578 4.929687,0 7.574218,-0.17578 8.097656,-0.17578 0.527344,0 0.589844,0.17578 0.589844,0.41406 v 1.34766 c 0,0.29297 -0.0625,0.52734 -0.46875,0.52734 h -2.820313 c -1.640625,0 -2.464843,0.53125 -2.464843,1.52735 0,0.46875 0.05859,1.17578 0.234374,2 0.355469,2.11328 2.527344,9.09765 3.585938,12.39062 0.699219,2.23047 4.113281,12.32813 5.460938,15.91016 h 0.117187 c 1.230469,-2.75781 5.8164063,-14.85547 6.2851563,-16.20703 0.585938,-1.58203 2.8124999,-8.33985 3.695313,-10.92188 0.472656,-1.46484 0.828125,-2.52734 0.828125,-3.34765 -0.0039,-0.70703 -0.417969,-1.35157 -1.8789071,-1.35157 h -1.5351559 c -0.234375,0 -0.292968,-0.17578 -0.292968,-0.52734 v -1.35156 c 0,-0.29297 0.05859,-0.41406 0.355468,-0.41406 0.5312499,0 3.226563,0.17968 6.92968802,0.17968 4.28515598,0 5.75390548,-0.17968 6.28124948,-0.17968 0.355468,0 0.410156,0.11718 0.410156,0.41406 v 1.46875 c 0,0.23047 -0.05469,0.41015 -0.410156,0.41015 h -1.582032 c -1.9414055,0 -3.0546865,0.9375 -4.1679675,2.29297 -1.52734398,1.87891 -6.2265631,13.91407 -7.222656,16.38282 -0.707032,1.9375 -8.2812503,20.60937 -8.5781263,21.19921 -0.230468,0.46875 -0.527343,0.76563 -0.820312,0.76563 -0.46875,0 -0.703125,-0.58984 -1,-1.35156 -1.875,-5.40235 -6.636719,-18.78907 -7.398438,-20.90625 l -0.585937,-1.9961 c -1.410156,-4.16797 -4.171875,-12.68359 -4.933594,-14.44922 -0.59375,-1.35156 -1.179687,-1.93359 -2.414062,-1.93359 h -1.523438 c -0.238281,0 -0.292969,-0.17969 -0.292969,-0.41406 v -1.46485"
     id="path13" />
  <path
     fill-rule="nonzero"
     fill="#ffffff"
     fill-opacity="1"
     d="m 3.3160583,76.281245 c 0,-1.99609 -0.351562,-3.05078 -3.28515598,-3.52343 -0.417969,-0.0586 -0.53125,-0.17969 -0.53125,-0.41407 v -0.52343 c 0,-0.17969 0.113281,-0.29297 0.410156,-0.41797 1.87890598,-0.70313 4.11328098,-1.64063 6.34374948,-2.8711 0.46875,-0.23437 0.765625,-0.35156 1.113281,-0.35156 0.292969,0 0.355469,0.29297 0.292969,0.70313 -0.117188,0.99609 -0.117188,4.69531 -0.113281,9.57031 v 6.40234 c 0,2.28907 0,4.40235 0.05469,5.05078 0.121094,1.10938 0.296875,1.52735 0.941406,1.52735 h 2.6992192 c 0.472657,0 0.589844,0.17578 0.589844,0.52734 v 0.9961 c 0,0.41015 -0.117187,0.58984 -0.527344,0.58984 -0.464843,0 -3.1718752,-0.17969 -5.6367192,-0.17969 -3.4101555,0.004 -5.69531148,0.17969 -6.34374948,0.17969 -0.292968,0 -0.46875002,-0.12109 -0.46875002,-0.46875 v -1.17578 c 0,-0.35547 0.17578202,-0.46875 0.58593802,-0.46875 H 2.3199673 c 0.644532,0 0.882813,-0.23828 0.941406,-1.17578 0.05859,-1.76172 0.05859,-3.58203 0.05859,-5.34375 l -0.0039,-8.63282"
     id="path15" />
  <path
     fill-rule="nonzero"
     fill="#ffffff"
     fill-opacity="1"
     d="m 2.0035583,62.554685 c 0,-1.47265 1.238281,-3.05469 3.5859375,-3.05469 2.054687,0 3.054687,1.58204 3.054687,2.87891 0,1.52344 -1.058594,3.22656 -3.4062495,3.22656 -1.292969,0 -3.234375,-1.17187 -3.234375,-3.05078"
     id="path17" />
  <g
     clip-path="url(#clip-0)"
     id="g21"
     transform="translate(-34.996442,-697.45312)">
    <path
       fill-rule="nonzero"
       fill="#ffffff"
       fill-opacity="1"
       d="m 137.35937,773.73437 c 0,-1.99609 -0.35156,-3.05078 -3.28906,-3.52343 -0.41015,-0.0586 -0.52734,-0.17969 -0.52734,-0.41407 v -0.52343 c 0,-0.17969 0.11719,-0.29297 0.41797,-0.41797 1.875,-0.70313 4.10156,-1.64063 6.33593,-2.8711 0.46875,-0.23437 0.76563,-0.35156 1.11719,-0.35156 0.29297,0 0.35547,0.29297 0.29297,0.70313 -0.11719,0.99609 -0.11719,4.69531 -0.11328,9.57031 v 6.40234 c 0,2.28907 0,4.40235 0.0547,5.05078 0.12109,1.10938 0.29297,1.52735 0.9414,1.52735 h 2.70313 c 0.46875,0 0.58594,0.17578 0.58594,0.52734 v 0.9961 c 0,0.41015 -0.11719,0.58984 -0.52735,0.58984 -0.46875,0 -3.17578,-0.17969 -5.63672,-0.17969 -3.41015,0.004 -5.69922,0.17969 -6.34765,0.17969 -0.29297,0 -0.46875,-0.12109 -0.46875,-0.46875 v -1.17578 c 0,-0.35547 0.17578,-0.46875 0.59375,-0.46875 h 2.87109 c 0.64453,0 0.87891,-0.23828 0.94141,-1.17578 0.0586,-1.76172 0.0586,-3.58203 0.0586,-5.34375 l -0.004,-8.63282"
       id="path19" />
  </g>
  <path
     fill-rule="nonzero"
     fill="#ffffff"
     fill-opacity="1"
     d="m 101.05825,62.554685 c 0,-1.47265 1.23047,-3.05469 3.58203,-3.05469 2.05078,0 3.05469,1.58204 3.05469,2.87891 0,1.52344 -1.0586,3.22656 -3.40625,3.22656 -1.29297,0 -3.23047,-1.17187 -3.23047,-3.05078"
     id="path23" />
  <path
     fill-rule="nonzero"
     fill="#ffffff"
     fill-opacity="1"
     d="m 20.581683,86.027345 c 0,4.40625 1.992187,5.17187 3.054687,5.17187 1.351563,0 3.054688,-0.23437 3.871094,-0.76562 0.296875,-0.17578 0.53125,-0.11719 0.707032,0.11719 l 0.296874,0.52734 c 0.171876,0.23047 0.05859,0.46875 -0.125,0.64453 -0.582031,0.58984 -2.992187,2.35547 -6.515624,2.35547 -2.878907,0 -5.695313,-2.76563 -5.695313,-4.99219 0,-2.41406 0.179687,-7.58203 0.179687,-8.40234 v -1.29297 c 0,-1.05859 0.05469,-4.98828 0.117188,-7.45703 H 12.88637 c -0.53125,0 -0.882812,-0.23438 -0.882812,-0.70703 0,-0.46875 0.351562,-0.64453 1.054688,-1.05469 1.414062,-0.82031 5.933593,-5.40234 6.699218,-7.39844 0.171875,-0.46875 0.46875,-0.58594 0.824219,-0.58594 0.46875,0 0.585937,0.41016 0.585937,0.87891 l -0.296874,5.81641 h 8.167968 c 0.347656,0 0.527344,0.29297 0.40625,0.52734 l -0.582031,2.05078 c -0.06641,0.30078 -0.179687,0.46875 -0.53125,0.46875 l -7.574219,0.004 c -0.121094,2.70312 -0.175781,5.51953 -0.175781,8.22265 v 5.8711"
     id="path25" />
  <path
     fill-rule="nonzero"
     fill="#ffffff"
     fill-opacity="1"
     d="m 34.964496,77.749995 c -0.117188,0.52344 -0.175782,1.46485 -0.175782,2.81641 0,5.75391 3.644532,10.09766 8.34375,10.09766 3.578125,0 6.101563,-2.05469 7.101563,-3.99219 0.117187,-0.23438 0.351562,-0.35156 0.53125,-0.29297 l 0.757812,0.41016 c 0.183594,0.0586 0.296875,0.23828 0,0.88281 -1.054687,2.35156 -4.109375,6.40234 -9.335937,6.40234 -3.347656,0 -7.042969,-0.99609 -9.21875,-4.17187 -2.054688,-2.99219 -2.582032,-5.16797 -2.582032,-9.27735 0,-2.29296 0.585938,-6.22265 3.695313,-9.33984 2.523437,-2.57812 5.460937,-3.10937 8.398437,-3.10937 6.753907,-0.004 8.632813,6.33984 8.632813,8.63281 0,0.82031 -0.703125,0.9375 -1.644531,0.9375 z m 9.335937,-1.76562 c 1.117187,0 1.585937,-0.29297 1.585937,-0.82031 0,-1.35157 -0.703124,-5.22657 -4.523437,-5.22657 -2.582031,0 -5.042969,1.70313 -6.164063,6.05079 l 9.101563,-0.004"
     id="path27" />
  <path
     fill-rule="nonzero"
     fill="#ffffff"
     fill-opacity="1"
     d="m 57.745746,77.746095 c 0,-2.9961 -0.46875,-3.58203 -2.109376,-4.46485 l -1.121093,-0.58203 c -0.347657,-0.12109 -0.46875,-0.17968 -0.46875,-0.41797 v -0.35156 c 0,-0.23437 0.121093,-0.34765 0.46875,-0.52734 l 5.816406,-2.99219 c 0.351563,-0.17969 0.585937,-0.23828 0.820313,-0.23828 0.355468,0 0.410156,0.35156 0.410156,0.70703 l 0.292968,4.05469 h 0.238282 c 1.757812,-2.70313 4.519536,-5.11328 7.046876,-5.11328 1.99609,0 2.99219,1.23047 2.99219,2.58593 0,1.69922 -1.41016,2.875 -2.46875,2.875 -0.64063,0 -1.22657,-0.23437 -1.69922,-0.46875 -0.46875,-0.29296 -1.17578,-0.46875 -1.9375,-0.46875 -0.94141,0 -2.464846,0.58985 -3.464846,2.46875 -0.351563,0.64063 -0.589844,1.70313 -0.585938,1.87891 v 12.33203 c 0,1.81641 0.414063,2.40625 1.644532,2.40625 h 2.761722 c 0.35156,0 0.41015,0.17578 0.41015,0.52735 v 1.05859 c 0,0.35156 -0.0586,0.53125 -0.29297,0.53125 -0.35156,0 -3.054684,-0.17969 -6.226559,-0.17969 -3.636719,0 -6.105469,0.17969 -6.460937,0.17969 -0.234375,0 -0.347656,-0.12109 -0.347656,-0.59375 v -0.99609 c 0,-0.41016 0.113281,-0.52735 0.644531,-0.52735 h 2.285156 c 0.882813,0 1.296875,-0.35156 1.296875,-1.11328 0.05469,-1.94141 0.05469,-3.99609 0.05469,-7.05078 v -5.51953"
     id="path29" />
  <path
     fill-rule="nonzero"
     fill="#ffffff"
     fill-opacity="1"
     d="m 74.538718,61.710935 c 0,-3.93359 -0.64453,-4.75781 -2.76172,-5.46094 l -0.58594,-0.17578 c -0.64453,-0.17578 -0.75781,-0.29297 -0.75781,-0.46875 v -0.46875 c 0,-0.17968 0.11328,-0.29297 0.46484,-0.46875 1.70313,-0.76562 4.75781,-2.29297 6.22656,-3.23047 0.41016,-0.29687 0.87891,-0.53125 1.23047,-0.53125 0.41016,0 0.52735,0.29688 0.46875,1 -0.0586,0.46875 -0.0547,7.16407 -0.0547,12.39063 v 6.8125 c 1.8789,-1.82031 5.22265,-2.9375 8.10156,-2.9375 5.16797,0 10.750003,4.16797 10.750003,12.56641 0,6.87109 -5.519533,13.32812 -12.218753,13.32812 -3.28516,0 -5.57813,-0.69922 -6.92578,-1.52344 l -2.35157,1.29297 c -0.23046,0.17969 -0.41015,0.23438 -0.76562,0.17969 l -0.70313,-0.17969 c -0.23046,-0.0547 -0.29687,-0.17578 -0.23046,-0.46875 0.11718,-0.82422 0.11718,-5.69531 0.11718,-9.98047 z m 4.23047,19.02735 c 0,4.8789 0.17968,6.63671 0.88281,8.51562 0.58594,1.41016 3.05469,2.9375 5.57812,2.9375 3.52344,0 7.8711,-2.40625 7.8711,-10.10156 0,-5.69531 -3,-11.09766 -8.75,-11.09766 -2.17969,0 -4.29297,0.76172 -5.58203,2.11328 v 7.63282"
     id="path31" />
  <path
     fill-rule="nonzero"
     fill="#fbbf15"
     fill-opacity="1"
     d="m -29.762067,6.066405 c 0,-2.02344 -0.476563,-2.97266 -2.023437,-2.97266 h -2.734376 c -0.359374,0 -0.476562,-0.12109 -0.476562,-0.53906 V 1.1875 c 0,-0.35546 0.117188,-0.47265 0.589844,-0.47265 0.597656,0 3.449218,0.17578 9.160156,0.17578 4.988281,0 7.847656,-0.17578 8.558594,-0.17578 0.355468,0 0.476562,0.11719 0.476562,0.41406 v 1.488275 c 0,0.35547 -0.121094,0.47656 -0.476562,0.47656 h -2.496094 c -1.785156,0 -2.851562,1.0625 -2.914062,2.3125 -0.05859,0.71485 -0.175782,4.28516 -0.175782,7.73047 v 7.375 c 0,2.96875 0.05469,7.19141 0.175782,9.08985 0.179687,2.73437 0.652343,5.46875 2.078124,7.37109 2.023438,2.73047 5.230469,3.68359 8.085938,3.68359 2.7382813,0 6.0664063,-1.0664 7.9648442,-2.85156 2.2617181,-2.25781 3.44921812,-5.70703 3.44921812,-10.04687 v -10.69922 c 0,-4.75 -0.472656,-9.98438 -0.65234302,-11.35547 -0.179688,-1.54688 -1.132813,-2.60938 -2.4375,-2.60938 h -2.1406251 c -0.3554689,0 -0.4765629,-0.18359 -0.4765629,-0.42187 V 1.1875 c 0,-0.35546 0.121094,-0.47265 0.4765629,-0.47265 0.597656,0 3.3281251,0.17578 7.2539061,0.17578 3.683594,0 5.5859375,-0.17578 6.0585935,-0.17578 0.535156,0 0.597656,0.17578 0.597656,0.47265 v 1.367185 c 0,0.35547 -0.0625,0.53906 -0.359375,0.53906 h -2.136719 c -2.1367175,0 -2.3789055,1.66016 -2.4999995,2.3125 -0.113281,0.71485 -0.113281,9.03907 -0.113281,9.8125 0,0.83204 -0.121094,11.17188 -0.359375,13.55079 -0.355469,4.875 -1.78515598,8.5625 -4.996094,11.41406 -2.4960941,2.25781 -6.292968,3.6875 -10.8164063,3.6875 -2.855469,0 -6.300781,-0.47656 -8.558594,-1.42969 -3.449218,-1.42578 -5.824218,-4.16016 -7.015625,-7.96875 -0.832031,-2.60937 -1.066406,-6.53516 -1.066406,-14.32422 V 6.066405"
     id="path33" />
  <g
     clip-path="url(#clip-1)"
     id="g37"
     transform="translate(-34.996442,-697.45312)">
    <path
       fill-rule="nonzero"
       fill="#fbbf15"
       fill-opacity="1"
       d="m 44.824219,727.17187 c 0.234375,0 0.351562,0.1211 0.351562,0.47657 0.121094,1.90234 0.597657,4.16406 2.261719,6.77734 1.78125,2.85547 4.875,4.27734 7.847656,4.27734 3.210938,0 7.730469,-2.01953 7.730469,-6.95312 0,-5.46875 -2.5,-7.25 -8.800781,-9.62891 -1.902344,-0.71484 -5.824219,-2.3789 -8.679688,-4.99218 -2.019531,-1.90235 -2.96875,-4.875 -2.96875,-8.5 0,-3.33204 1.304688,-6.0625 4.15625,-8.32422 2.382813,-2.01953 4.996094,-2.85157 8.441406,-2.85157 3.925782,0 6.300782,0.95313 7.492188,1.42579 0.597656,0.23828 0.949219,0.12109 1.246094,-0.17579 l 0.773437,-0.77734 c 0.238281,-0.23437 0.476563,-0.35156 0.832031,-0.35156 0.359376,0 0.476563,0.35156 0.476563,0.95312 0,0.94532 0.949219,9.26953 0.949219,9.86328 0,0.23829 -0.117188,0.35547 -0.355469,0.41797 L 65.625,709.10156 c -0.234375,0.0586 -0.472656,0 -0.589844,-0.35547 -0.59375,-1.66406 -1.546875,-4.03906 -3.6875,-6.30078 -1.546875,-1.66406 -3.449218,-2.49609 -6.183594,-2.49609 -4.753906,0 -6.65625,3.80469 -6.65625,6.00781 0,2.01953 0.238282,3.80078 1.664063,5.34375 1.546875,1.54688 4.875,2.97656 7.25,3.6875 3.449219,1.06641 6.304687,2.25781 8.5625,4.64063 1.902344,2.01953 2.972656,4.51171 2.972656,8.49609 0,7.25 -4.753906,13.19531 -12.601562,13.19531 -4.875,0 -7.726563,-1.0664 -10.105469,-2.85547 -0.714844,-0.47265 -1.074219,-0.71093 -1.425781,-0.71093 -0.359375,0 -0.597657,0.47656 -0.953125,1.07031 -0.355469,0.59375 -0.59375,0.71484 -1.070313,0.71484 -0.472656,0 -0.710937,-0.35937 -0.710937,-0.95312 0.117187,-0.71094 0.949218,-10.34375 1.066406,-11.05469 0.05859,-0.35938 0.121094,-0.47656 0.359375,-0.47656 l 1.308594,0.11718"
       id="path35" />
  </g>
  <g
     clip-path="url(#clip-2)"
     id="g41"
     transform="translate(-34.996442,-697.45312)">
    <path
       fill-rule="nonzero"
       fill="#fbbf15"
       fill-opacity="1"
       d="m 109.61719,730.74219 c 0.17969,0.17578 0.23828,0.35547 0.11719,0.58984 -3.56641,5.11719 -9.27344,9.98828 -17.710942,9.98828 -7.609376,0 -11.890626,-2.25781 -15.574219,-5.58594 -4.402344,-3.92578 -6.421875,-10.82031 -6.421875,-16.05078 0,-5.82422 1.902344,-11.41406 6.0625,-15.92968 3.210937,-3.44922 8.324218,-6.30079 15.453125,-6.30079 5.472656,0 9.871091,1.66407 12.011721,2.85157 0.83203,0.47656 1.07031,0.47656 1.1875,0 l 0.47656,-1.54297 c 0.11719,-0.35547 0.23438,-0.35547 0.94922,-0.35547 0.71484,0 0.83203,0.11719 0.83203,0.94922 0,1.07031 1.19141,10.57812 1.42969,12.36328 0.0547,0.35937 0,0.53516 -0.23828,0.59375 l -1.12891,0.35547 c -0.30078,0.12109 -0.47656,-0.11719 -0.65625,-0.58985 -0.71484,-2.14453 -2.14062,-5.11328 -4.63672,-7.73046 -2.61328,-2.4961 -5.70703,-4.39844 -10.339842,-4.39844 -9.511719,0 -13.4375,8.5625 -13.4375,17.12109 0,3.6875 1.070312,10.69922 5.472656,15.45313 3.921875,4.16015 7.367187,4.63672 10.222656,4.63672 6.53906,0 11.70703,-3.26954 14.20703,-6.89454 0.29688,-0.41796 0.53516,-0.59375 0.71094,-0.41796 l 1.01172,0.89453"
       id="path39" />
  </g>
  <text
     xml:space="preserve"
     transform="matrix(0.75,0,0,0.75,-34.996442,0)"
     id="text692"
     style="font-style:normal;font-variant:normal;font-weight:normal;font-stretch:normal;font-size:48px;line-height:1.25;font-family:'Source Serif Pro';-inkscape-font-specification:'Source Serif Pro';white-space:pre;shape-inside:url(#rect694);display:inline;fill:#ffffff;fill-opacity:1;stroke:none"><tspan
       x="6.5371094"
       y="229.1268"
       id="tspan1385"><tspan
         dx="0 17.400009 13.848038"
         style="font-size:24px"
         id="tspan1383">NLP</tspan></tspan></text>
  <path
     fill-rule="nonzero"
     fill="#000000"
     fill-opacity="1"
     d="m -23.891916,118.12453 h 0.370031 c 0.741919,0.86525 10.616559,13.20857 11.479919,14.07385 0.741933,0.98668 5.5559153,6.78927 9.8765423,12.09659 3.82539,4.56733 7.159315,8.3946 7.6526595,9.0113 0.493357,0.49335 1.235276,0.98859 2.098649,0.98859 0.740028,0 0.740028,-0.86527 0.740028,-1.72863 v -16.29582 c 0,-6.29403 0.61859,-16.66392 0.925982,-20.86122 0.185953,-2.2827 0.8026522,-3.2713 2.0379292,-3.2713 h 1.728633 c 0.246673,0 0.370014,-0.24668 0.370014,-0.61669 v -1.41934 c 0,-0.18596 -0.123342,-0.43263 -0.618589,-0.43263 -0.740029,0 -2.22199,0.18594 -5.9240262,0.18594 -4.1972965,0 -6.17260248,-0.18594 -6.91263148,-0.18594 -0.495248,0 -0.495248,0.1234 -0.495248,0.49335 v 1.41933 c 0,0.3093 0,0.55598 0.371906,0.55598 H 1.7832963 c 1.48195,0 2.84058,0.86526 3.271314,2.34531 0.3092945,1.04934 0.5559675,7.09859 0.6792985,9.44392 0.123342,3.08534 0.123342,6.17259 0.123342,11.60327 v 6.41928 H 5.6105778 C 4.6238763,140.71438 -5.0059928,128.74109 -5.8693637,127.75439 -7.1027497,126.02577 -19.201268,110.84188 -19.817948,110.2252 c -0.370019,-0.37003 -0.740029,-0.55597 -1.48197,-0.55597 -0.370009,0 -0.925974,0.0626 -1.728629,0.0626 -0.740029,0.0607 -1.666014,0.1234 -2.715338,0.1234 -2.715339,0 -4.381342,0 -5.493282,-0.0626 -1.110059,-0.0607 -1.603408,-0.1234 -1.912693,-0.1234 -0.24668,0 -0.37002,0.1234 -0.37002,0.37001 v 1.66791 c 0,0.24667 0.12334,0.37003 0.37002,0.43074 h 1.975309 c 2.715327,0 4.813976,2.83868 4.813976,6.54263 v 7.83859 c 0,9.87655 -0.370009,18.51591 -0.432624,19.62784 -0.307405,3.76466 -1.172665,5.12328 -2.777954,5.12328 h -2.096758 c -0.248571,0 -0.371911,0.24669 -0.371911,0.37003 v 1.54268 c 0,0.43261 0.123341,0.55595 0.371911,0.55595 0.6167,0 4.813998,-0.18594 6.417385,-0.18594 2.345308,0 6.049258,0.18594 6.665942,0.18594 0.495258,0 0.495258,-0.12339 0.495258,-0.49335 v -1.42123 c 0,-0.30739 0,-0.55408 -0.495258,-0.55408 h -1.603383 c -2.221989,0 -2.96392,-1.48194 -3.087261,-4.56729 -0.123318,-1.9146 -0.616688,-10.55585 -0.616688,-21.04718 z m 78.262802,22.34317 c -0.370013,-0.1234 -0.493352,0 -0.740025,0.24668 -0.865262,2.34724 -4.813983,9.75321 -8.271247,10.24657 -2.468659,0.30928 -6.912631,0.30928 -10.36989,0.30928 h -3.455363 c -0.246684,-2.6546 -0.246684,-15.98652 -0.246684,-17.09656 v -5.30924 c 0,-4.32061 0.246684,-13.57858 0.246684,-14.44193 0,-1.66793 0.246671,-2.28461 2.098649,-2.28461 h 3.33202 c 0.493354,0 0.61669,-0.24668 0.61669,-0.49335 v -1.41934 c 0,-0.3093 -0.123342,-0.55597 -0.61669,-0.55597 -0.493356,0 -3.08535,0.18594 -9.751307,0.18594 -5.679247,0 -7.901226,-0.18594 -8.517923,-0.18594 -0.370015,0 -0.493345,0.1234 -0.493345,0.49335 v 1.41933 c 0,0.18597 0.123328,0.55598 0.493345,0.55598 h 2.592005 c 1.605291,0 1.851975,0.61668 1.975304,2.22198 0.123342,1.04932 0.246673,7.59194 0.246673,11.54256 v 3.45535 c 0,3.70395 -0.246673,19.1345 -0.246673,20.24454 0,0.80266 -0.370013,1.66791 -2.592003,1.66791 h -2.468651 c -0.370015,0 -0.370015,0.1234 -0.370015,0.49336 v 1.41935 c 0,0.43261 0,0.55595 0.493345,0.55595 0.740041,0 2.96202,-0.18594 8.517935,-0.18594 6.295932,0 24.069908,0.1234 25.675198,0.18594 0.370012,-1.66602 2.838672,-11.91257 3.087252,-12.28258 0,-0.37001 0,-0.49335 -0.125232,-0.61669 z m 8.394588,-8.51601 c 0,7.1593 -0.123342,16.78727 -0.185956,17.40396 -0.184057,1.66791 -0.679308,1.91458 -2.777957,1.91458 h -1.973409 c -0.371912,0 -0.371912,0.1234 -0.371912,0.49336 v 1.54268 c 0,0.18595 0,0.43262 0.495251,0.43262 0.616693,0 3.085354,-0.18594 8.516027,-0.18594 6.66594,0 8.64125,0.18594 9.50652,0.18594 0.49336,0 0.49336,-0.24667 0.49336,-0.61668 v -1.42124 c 0,-0.18405 0,-0.43074 -0.49336,-0.43074 h -3.45726 c -1.11004,0 -1.72863,-0.61858 -1.91269,-1.9753 -0.0626,-0.80265 -0.0626,-9.19724 -0.0626,-12.15925 v -2.71534 c 1.60529,0.24668 3.45727,0.24668 5.55592,0.24668 10.49133,0 16.41725,-4.81398 16.41725,-12.46855 0,-3.82726 -1.85198,-7.28262 -4.69065,-9.38127 -3.5806,-2.46866 -7.1593,-3.14797 -14.56718,-3.14797 -2.09675,0 -5.67735,0.18594 -6.78929,0.18594 -6.170702,0 -8.392692,-0.18594 -9.134615,-0.18594 -0.246672,0 -0.370013,0.1234 -0.370013,0.49335 v 1.54457 c 0,0.3074 0.123342,0.43074 0.370013,0.43074 h 3.210593 c 1.356716,0 2.036025,0.30927 2.159365,1.35861 0.06257,0.67933 0.06257,7.22192 0.06257,11.29399 z m 7.775994,-19.75118 c 0.9886,-0.49336 2.46867,-0.43263 3.58061,-0.43263 2.962,0 9.7513,1.91268 9.7513,10.30727 0,2.22197 -0.24668,4.5673 -1.48006,6.41927 -1.48195,2.09865 -4.69255,4.1973 -7.40789,4.1973 -1.60529,0 -3.33201,-0.1234 -4.44396,-0.49334 z m 0,0"
     id="path760"
     style="fill:#ffffff;stroke-width:0.485763" />
</svg>
